<?xml version="1.0" encoding="utf-8" standalone="no"?>
<!DOCTYPE svg PUBLIC "-//W3C//DTD SVG 1.1//EN"
  "http://www.w3.org/Graphics/SVG/1.1/DTD/svg11.dtd">
<svg xmlns:xlink="http://www.w3.org/1999/xlink" width="1015.023281pt" height="537.323109pt" viewBox="0 0 1015.023281 537.323109" xmlns="http://www.w3.org/2000/svg" version="1.1">
 <metadata>
  <rdf:RDF xmlns:dc="http://purl.org/dc/elements/1.1/" xmlns:cc="http://creativecommons.org/ns#" xmlns:rdf="http://www.w3.org/1999/02/22-rdf-syntax-ns#">
   <cc:Work>
    <dc:type rdf:resource="http://purl.org/dc/dcmitype/StillImage"/>
    <dc:date>2024-06-17T16:30:18.382620</dc:date>
    <dc:format>image/svg+xml</dc:format>
    <dc:creator>
     <cc:Agent>
      <dc:title>Matplotlib v3.8.0, https://matplotlib.org/</dc:title>
     </cc:Agent>
    </dc:creator>
   </cc:Work>
  </rdf:RDF>
 </metadata>
 <defs>
  <style type="text/css">*{stroke-linejoin: round; stroke-linecap: butt}</style>
 </defs>
 <g id="figure_1">
  <g id="patch_1">
   <path d="M 0 537.323109 
L 1015.023281 537.323109 
L 1015.023281 0 
L 0 0 
L 0 537.323109 
z
" style="fill: none"/>
  </g>
  <g id="axes_1">
   <g id="patch_2">
    <path d="M 67.360781 461.757187 
L 848.560781 461.757187 
L 848.560781 26.877187 
L 67.360781 26.877187 
L 67.360781 461.757187 
z
" style="fill: none"/>
   </g>
   <g id="matplotlib.axis_1">
    <g id="xtick_1">
     <g id="line2d_1">
      <defs>
       <path id="me8521f4f85" d="M 0 0 
L 0 9 
" style="stroke: #262626; stroke-width: 1.875"/>
      </defs>
      <g>
       <use xlink:href="#me8521f4f85" x="478.518676" y="461.757187" style="fill: #262626; stroke: #262626; stroke-width: 1.875"/>
      </g>
     </g>
     <g id="text_1">
      <!-- Jan -->
      <g style="fill: #262626" transform="translate(465.800785 486.794609) scale(0.165 -0.165)">
       <defs>
        <path id="DejaVuSans-4a" d="M 628 4666 
L 1259 4666 
L 1259 325 
Q 1259 -519 939 -900 
Q 619 -1281 -91 -1281 
L -331 -1281 
L -331 -750 
L -134 -750 
Q 284 -750 456 -515 
Q 628 -281 628 325 
L 628 4666 
z
" transform="scale(0.015625)"/>
        <path id="DejaVuSans-61" d="M 2194 1759 
Q 1497 1759 1228 1600 
Q 959 1441 959 1056 
Q 959 750 1161 570 
Q 1363 391 1709 391 
Q 2188 391 2477 730 
Q 2766 1069 2766 1631 
L 2766 1759 
L 2194 1759 
z
M 3341 1997 
L 3341 0 
L 2766 0 
L 2766 531 
Q 2569 213 2275 61 
Q 1981 -91 1556 -91 
Q 1019 -91 701 211 
Q 384 513 384 1019 
Q 384 1609 779 1909 
Q 1175 2209 1959 2209 
L 2766 2209 
L 2766 2266 
Q 2766 2663 2505 2880 
Q 2244 3097 1772 3097 
Q 1472 3097 1187 3025 
Q 903 2953 641 2809 
L 641 3341 
Q 956 3463 1253 3523 
Q 1550 3584 1831 3584 
Q 2591 3584 2966 3190 
Q 3341 2797 3341 1997 
z
" transform="scale(0.015625)"/>
        <path id="DejaVuSans-6e" d="M 3513 2113 
L 3513 0 
L 2938 0 
L 2938 2094 
Q 2938 2591 2744 2837 
Q 2550 3084 2163 3084 
Q 1697 3084 1428 2787 
Q 1159 2491 1159 1978 
L 1159 0 
L 581 0 
L 581 3500 
L 1159 3500 
L 1159 2956 
Q 1366 3272 1645 3428 
Q 1925 3584 2291 3584 
Q 2894 3584 3203 3211 
Q 3513 2838 3513 2113 
z
" transform="scale(0.015625)"/>
       </defs>
       <use xlink:href="#DejaVuSans-4a"/>
       <use xlink:href="#DejaVuSans-61" x="29.492188"/>
       <use xlink:href="#DejaVuSans-6e" x="90.771484"/>
      </g>
      <!-- 2022 -->
      <g style="fill: #262626" transform="translate(457.522426 505.271) scale(0.165 -0.165)">
       <defs>
        <path id="DejaVuSans-32" d="M 1228 531 
L 3431 531 
L 3431 0 
L 469 0 
L 469 531 
Q 828 903 1448 1529 
Q 2069 2156 2228 2338 
Q 2531 2678 2651 2914 
Q 2772 3150 2772 3378 
Q 2772 3750 2511 3984 
Q 2250 4219 1831 4219 
Q 1534 4219 1204 4116 
Q 875 4013 500 3803 
L 500 4441 
Q 881 4594 1212 4672 
Q 1544 4750 1819 4750 
Q 2544 4750 2975 4387 
Q 3406 4025 3406 3419 
Q 3406 3131 3298 2873 
Q 3191 2616 2906 2266 
Q 2828 2175 2409 1742 
Q 1991 1309 1228 531 
z
" transform="scale(0.015625)"/>
        <path id="DejaVuSans-30" d="M 2034 4250 
Q 1547 4250 1301 3770 
Q 1056 3291 1056 2328 
Q 1056 1369 1301 889 
Q 1547 409 2034 409 
Q 2525 409 2770 889 
Q 3016 1369 3016 2328 
Q 3016 3291 2770 3770 
Q 2525 4250 2034 4250 
z
M 2034 4750 
Q 2819 4750 3233 4129 
Q 3647 3509 3647 2328 
Q 3647 1150 3233 529 
Q 2819 -91 2034 -91 
Q 1250 -91 836 529 
Q 422 1150 422 2328 
Q 422 3509 836 4129 
Q 1250 4750 2034 4750 
z
" transform="scale(0.015625)"/>
       </defs>
       <use xlink:href="#DejaVuSans-32"/>
       <use xlink:href="#DejaVuSans-30" x="63.623047"/>
       <use xlink:href="#DejaVuSans-32" x="127.246094"/>
       <use xlink:href="#DejaVuSans-32" x="190.869141"/>
      </g>
     </g>
    </g>
    <g id="xtick_2">
     <g id="line2d_2">
      <defs>
       <path id="mf7d888bcbf" d="M 0 0 
L 0 6 
" style="stroke: #262626; stroke-width: 1.5"/>
      </defs>
      <g>
       <use xlink:href="#mf7d888bcbf" x="67.360781" y="461.757187" style="fill: #262626; stroke: #262626; stroke-width: 1.5"/>
      </g>
     </g>
    </g>
    <g id="xtick_3">
     <g id="line2d_3">
      <g>
       <use xlink:href="#mf7d888bcbf" x="108.476571" y="461.757187" style="fill: #262626; stroke: #262626; stroke-width: 1.5"/>
      </g>
     </g>
     <g id="text_2">
      <!-- Apr -->
      <g style="fill: #262626" transform="translate(94.204071 483.694609) scale(0.165 -0.165)">
       <defs>
        <path id="DejaVuSans-41" d="M 2188 4044 
L 1331 1722 
L 3047 1722 
L 2188 4044 
z
M 1831 4666 
L 2547 4666 
L 4325 0 
L 3669 0 
L 3244 1197 
L 1141 1197 
L 716 0 
L 50 0 
L 1831 4666 
z
" transform="scale(0.015625)"/>
        <path id="DejaVuSans-70" d="M 1159 525 
L 1159 -1331 
L 581 -1331 
L 581 3500 
L 1159 3500 
L 1159 2969 
Q 1341 3281 1617 3432 
Q 1894 3584 2278 3584 
Q 2916 3584 3314 3078 
Q 3713 2572 3713 1747 
Q 3713 922 3314 415 
Q 2916 -91 2278 -91 
Q 1894 -91 1617 61 
Q 1341 213 1159 525 
z
M 3116 1747 
Q 3116 2381 2855 2742 
Q 2594 3103 2138 3103 
Q 1681 3103 1420 2742 
Q 1159 2381 1159 1747 
Q 1159 1113 1420 752 
Q 1681 391 2138 391 
Q 2594 391 2855 752 
Q 3116 1113 3116 1747 
z
" transform="scale(0.015625)"/>
        <path id="DejaVuSans-72" d="M 2631 2963 
Q 2534 3019 2420 3045 
Q 2306 3072 2169 3072 
Q 1681 3072 1420 2755 
Q 1159 2438 1159 1844 
L 1159 0 
L 581 0 
L 581 3500 
L 1159 3500 
L 1159 2956 
Q 1341 3275 1631 3429 
Q 1922 3584 2338 3584 
Q 2397 3584 2469 3576 
Q 2541 3569 2628 3553 
L 2631 2963 
z
" transform="scale(0.015625)"/>
       </defs>
       <use xlink:href="#DejaVuSans-41"/>
       <use xlink:href="#DejaVuSans-70" x="68.408203"/>
       <use xlink:href="#DejaVuSans-72" x="131.884766"/>
      </g>
     </g>
    </g>
    <g id="xtick_4">
     <g id="line2d_4">
      <g>
       <use xlink:href="#mf7d888bcbf" x="149.59236" y="461.757187" style="fill: #262626; stroke: #262626; stroke-width: 1.5"/>
      </g>
     </g>
    </g>
    <g id="xtick_5">
     <g id="line2d_5">
      <g>
       <use xlink:href="#mf7d888bcbf" x="190.70815" y="461.757187" style="fill: #262626; stroke: #262626; stroke-width: 1.5"/>
      </g>
     </g>
    </g>
    <g id="xtick_6">
     <g id="line2d_6">
      <g>
       <use xlink:href="#mf7d888bcbf" x="231.823939" y="461.757187" style="fill: #262626; stroke: #262626; stroke-width: 1.5"/>
      </g>
     </g>
     <g id="text_3">
      <!-- Jul -->
      <g style="fill: #262626" transform="translate(221.869799 483.694609) scale(0.165 -0.165)">
       <defs>
        <path id="DejaVuSans-75" d="M 544 1381 
L 544 3500 
L 1119 3500 
L 1119 1403 
Q 1119 906 1312 657 
Q 1506 409 1894 409 
Q 2359 409 2629 706 
Q 2900 1003 2900 1516 
L 2900 3500 
L 3475 3500 
L 3475 0 
L 2900 0 
L 2900 538 
Q 2691 219 2414 64 
Q 2138 -91 1772 -91 
Q 1169 -91 856 284 
Q 544 659 544 1381 
z
M 1991 3584 
L 1991 3584 
z
" transform="scale(0.015625)"/>
        <path id="DejaVuSans-6c" d="M 603 4863 
L 1178 4863 
L 1178 0 
L 603 0 
L 603 4863 
z
" transform="scale(0.015625)"/>
       </defs>
       <use xlink:href="#DejaVuSans-4a"/>
       <use xlink:href="#DejaVuSans-75" x="29.492188"/>
       <use xlink:href="#DejaVuSans-6c" x="92.871094"/>
      </g>
     </g>
    </g>
    <g id="xtick_7">
     <g id="line2d_7">
      <g>
       <use xlink:href="#mf7d888bcbf" x="272.939729" y="461.757187" style="fill: #262626; stroke: #262626; stroke-width: 1.5"/>
      </g>
     </g>
    </g>
    <g id="xtick_8">
     <g id="line2d_8">
      <g>
       <use xlink:href="#mf7d888bcbf" x="314.055518" y="461.757187" style="fill: #262626; stroke: #262626; stroke-width: 1.5"/>
      </g>
     </g>
    </g>
    <g id="xtick_9">
     <g id="line2d_9">
      <g>
       <use xlink:href="#mf7d888bcbf" x="355.171308" y="461.757187" style="fill: #262626; stroke: #262626; stroke-width: 1.5"/>
      </g>
     </g>
     <g id="text_4">
      <!-- Oct -->
      <g style="fill: #262626" transform="translate(340.906542 483.694609) scale(0.165 -0.165)">
       <defs>
        <path id="DejaVuSans-4f" d="M 2522 4238 
Q 1834 4238 1429 3725 
Q 1025 3213 1025 2328 
Q 1025 1447 1429 934 
Q 1834 422 2522 422 
Q 3209 422 3611 934 
Q 4013 1447 4013 2328 
Q 4013 3213 3611 3725 
Q 3209 4238 2522 4238 
z
M 2522 4750 
Q 3503 4750 4090 4092 
Q 4678 3434 4678 2328 
Q 4678 1225 4090 567 
Q 3503 -91 2522 -91 
Q 1538 -91 948 565 
Q 359 1222 359 2328 
Q 359 3434 948 4092 
Q 1538 4750 2522 4750 
z
" transform="scale(0.015625)"/>
        <path id="DejaVuSans-63" d="M 3122 3366 
L 3122 2828 
Q 2878 2963 2633 3030 
Q 2388 3097 2138 3097 
Q 1578 3097 1268 2742 
Q 959 2388 959 1747 
Q 959 1106 1268 751 
Q 1578 397 2138 397 
Q 2388 397 2633 464 
Q 2878 531 3122 666 
L 3122 134 
Q 2881 22 2623 -34 
Q 2366 -91 2075 -91 
Q 1284 -91 818 406 
Q 353 903 353 1747 
Q 353 2603 823 3093 
Q 1294 3584 2113 3584 
Q 2378 3584 2631 3529 
Q 2884 3475 3122 3366 
z
" transform="scale(0.015625)"/>
        <path id="DejaVuSans-74" d="M 1172 4494 
L 1172 3500 
L 2356 3500 
L 2356 3053 
L 1172 3053 
L 1172 1153 
Q 1172 725 1289 603 
Q 1406 481 1766 481 
L 2356 481 
L 2356 0 
L 1766 0 
Q 1100 0 847 248 
Q 594 497 594 1153 
L 594 3053 
L 172 3053 
L 172 3500 
L 594 3500 
L 594 4494 
L 1172 4494 
z
" transform="scale(0.015625)"/>
       </defs>
       <use xlink:href="#DejaVuSans-4f"/>
       <use xlink:href="#DejaVuSans-63" x="78.710938"/>
       <use xlink:href="#DejaVuSans-74" x="133.691406"/>
      </g>
     </g>
    </g>
    <g id="xtick_10">
     <g id="line2d_10">
      <g>
       <use xlink:href="#mf7d888bcbf" x="396.287097" y="461.757187" style="fill: #262626; stroke: #262626; stroke-width: 1.5"/>
      </g>
     </g>
    </g>
    <g id="xtick_11">
     <g id="line2d_11">
      <g>
       <use xlink:href="#mf7d888bcbf" x="437.402887" y="461.757187" style="fill: #262626; stroke: #262626; stroke-width: 1.5"/>
      </g>
     </g>
    </g>
    <g id="xtick_12">
     <g id="line2d_12">
      <g>
       <use xlink:href="#mf7d888bcbf" x="519.634465" y="461.757187" style="fill: #262626; stroke: #262626; stroke-width: 1.5"/>
      </g>
     </g>
    </g>
    <g id="xtick_13">
     <g id="line2d_13">
      <g>
       <use xlink:href="#mf7d888bcbf" x="560.750255" y="461.757187" style="fill: #262626; stroke: #262626; stroke-width: 1.5"/>
      </g>
     </g>
    </g>
    <g id="xtick_14">
     <g id="line2d_14">
      <g>
       <use xlink:href="#mf7d888bcbf" x="601.866044" y="461.757187" style="fill: #262626; stroke: #262626; stroke-width: 1.5"/>
      </g>
     </g>
     <g id="text_5">
      <!-- Apr -->
      <g style="fill: #262626" transform="translate(587.593544 483.694609) scale(0.165 -0.165)">
       <use xlink:href="#DejaVuSans-41"/>
       <use xlink:href="#DejaVuSans-70" x="68.408203"/>
       <use xlink:href="#DejaVuSans-72" x="131.884766"/>
      </g>
     </g>
    </g>
    <g id="xtick_15">
     <g id="line2d_15">
      <g>
       <use xlink:href="#mf7d888bcbf" x="642.981834" y="461.757187" style="fill: #262626; stroke: #262626; stroke-width: 1.5"/>
      </g>
     </g>
    </g>
    <g id="xtick_16">
     <g id="line2d_16">
      <g>
       <use xlink:href="#mf7d888bcbf" x="684.097623" y="461.757187" style="fill: #262626; stroke: #262626; stroke-width: 1.5"/>
      </g>
     </g>
    </g>
    <g id="xtick_17">
     <g id="line2d_17">
      <g>
       <use xlink:href="#mf7d888bcbf" x="725.213413" y="461.757187" style="fill: #262626; stroke: #262626; stroke-width: 1.5"/>
      </g>
     </g>
     <g id="text_6">
      <!-- Jul -->
      <g style="fill: #262626" transform="translate(715.259272 483.694609) scale(0.165 -0.165)">
       <use xlink:href="#DejaVuSans-4a"/>
       <use xlink:href="#DejaVuSans-75" x="29.492188"/>
       <use xlink:href="#DejaVuSans-6c" x="92.871094"/>
      </g>
     </g>
    </g>
    <g id="xtick_18">
     <g id="line2d_18">
      <g>
       <use xlink:href="#mf7d888bcbf" x="766.329202" y="461.757187" style="fill: #262626; stroke: #262626; stroke-width: 1.5"/>
      </g>
     </g>
    </g>
    <g id="xtick_19">
     <g id="line2d_19">
      <g>
       <use xlink:href="#mf7d888bcbf" x="807.444992" y="461.757187" style="fill: #262626; stroke: #262626; stroke-width: 1.5"/>
      </g>
     </g>
    </g>
    <g id="xtick_20">
     <g id="line2d_20">
      <g>
       <use xlink:href="#mf7d888bcbf" x="848.560781" y="461.757187" style="fill: #262626; stroke: #262626; stroke-width: 1.5"/>
      </g>
     </g>
     <g id="text_7">
      <!-- Oct -->
      <g style="fill: #262626" transform="translate(834.296016 483.694609) scale(0.165 -0.165)">
       <use xlink:href="#DejaVuSans-4f"/>
       <use xlink:href="#DejaVuSans-63" x="78.710938"/>
       <use xlink:href="#DejaVuSans-74" x="133.691406"/>
      </g>
     </g>
    </g>
    <g id="text_8">
     <!-- Month -->
     <g style="fill: #262626" transform="translate(429.752813 526.379672) scale(0.18 -0.18)">
      <defs>
       <path id="DejaVuSans-4d" d="M 628 4666 
L 1569 4666 
L 2759 1491 
L 3956 4666 
L 4897 4666 
L 4897 0 
L 4281 0 
L 4281 4097 
L 3078 897 
L 2444 897 
L 1241 4097 
L 1241 0 
L 628 0 
L 628 4666 
z
" transform="scale(0.015625)"/>
       <path id="DejaVuSans-6f" d="M 1959 3097 
Q 1497 3097 1228 2736 
Q 959 2375 959 1747 
Q 959 1119 1226 758 
Q 1494 397 1959 397 
Q 2419 397 2687 759 
Q 2956 1122 2956 1747 
Q 2956 2369 2687 2733 
Q 2419 3097 1959 3097 
z
M 1959 3584 
Q 2709 3584 3137 3096 
Q 3566 2609 3566 1747 
Q 3566 888 3137 398 
Q 2709 -91 1959 -91 
Q 1206 -91 779 398 
Q 353 888 353 1747 
Q 353 2609 779 3096 
Q 1206 3584 1959 3584 
z
" transform="scale(0.015625)"/>
       <path id="DejaVuSans-68" d="M 3513 2113 
L 3513 0 
L 2938 0 
L 2938 2094 
Q 2938 2591 2744 2837 
Q 2550 3084 2163 3084 
Q 1697 3084 1428 2787 
Q 1159 2491 1159 1978 
L 1159 0 
L 581 0 
L 581 4863 
L 1159 4863 
L 1159 2956 
Q 1366 3272 1645 3428 
Q 1925 3584 2291 3584 
Q 2894 3584 3203 3211 
Q 3513 2838 3513 2113 
z
" transform="scale(0.015625)"/>
      </defs>
      <use xlink:href="#DejaVuSans-4d"/>
      <use xlink:href="#DejaVuSans-6f" x="86.279297"/>
      <use xlink:href="#DejaVuSans-6e" x="147.460938"/>
      <use xlink:href="#DejaVuSans-74" x="210.839844"/>
      <use xlink:href="#DejaVuSans-68" x="250.048828"/>
     </g>
    </g>
   </g>
   <g id="matplotlib.axis_2">
    <g id="ytick_1">
     <g id="line2d_21">
      <defs>
       <path id="m52e692a81c" d="M 0 0 
L -9 0 
" style="stroke: #262626; stroke-width: 1.875"/>
      </defs>
      <g>
       <use xlink:href="#m52e692a81c" x="67.360781" y="461.757187" style="fill: #262626; stroke: #262626; stroke-width: 1.875"/>
      </g>
     </g>
     <g id="text_9">
      <!-- 0.0 -->
      <g style="fill: #262626" transform="translate(28.620625 468.025898) scale(0.165 -0.165)">
       <defs>
        <path id="DejaVuSans-2e" d="M 684 794 
L 1344 794 
L 1344 0 
L 684 0 
L 684 794 
z
" transform="scale(0.015625)"/>
       </defs>
       <use xlink:href="#DejaVuSans-30"/>
       <use xlink:href="#DejaVuSans-2e" x="63.623047"/>
       <use xlink:href="#DejaVuSans-30" x="95.410156"/>
      </g>
     </g>
    </g>
    <g id="ytick_2">
     <g id="line2d_22">
      <g>
       <use xlink:href="#m52e692a81c" x="67.360781" y="374.781187" style="fill: #262626; stroke: #262626; stroke-width: 1.875"/>
      </g>
     </g>
     <g id="text_10">
      <!-- 0.2 -->
      <g style="fill: #262626" transform="translate(28.620625 381.049898) scale(0.165 -0.165)">
       <use xlink:href="#DejaVuSans-30"/>
       <use xlink:href="#DejaVuSans-2e" x="63.623047"/>
       <use xlink:href="#DejaVuSans-32" x="95.410156"/>
      </g>
     </g>
    </g>
    <g id="ytick_3">
     <g id="line2d_23">
      <g>
       <use xlink:href="#m52e692a81c" x="67.360781" y="287.805187" style="fill: #262626; stroke: #262626; stroke-width: 1.875"/>
      </g>
     </g>
     <g id="text_11">
      <!-- 0.4 -->
      <g style="fill: #262626" transform="translate(28.620625 294.073898) scale(0.165 -0.165)">
       <defs>
        <path id="DejaVuSans-34" d="M 2419 4116 
L 825 1625 
L 2419 1625 
L 2419 4116 
z
M 2253 4666 
L 3047 4666 
L 3047 1625 
L 3713 1625 
L 3713 1100 
L 3047 1100 
L 3047 0 
L 2419 0 
L 2419 1100 
L 313 1100 
L 313 1709 
L 2253 4666 
z
" transform="scale(0.015625)"/>
       </defs>
       <use xlink:href="#DejaVuSans-30"/>
       <use xlink:href="#DejaVuSans-2e" x="63.623047"/>
       <use xlink:href="#DejaVuSans-34" x="95.410156"/>
      </g>
     </g>
    </g>
    <g id="ytick_4">
     <g id="line2d_24">
      <g>
       <use xlink:href="#m52e692a81c" x="67.360781" y="200.829187" style="fill: #262626; stroke: #262626; stroke-width: 1.875"/>
      </g>
     </g>
     <g id="text_12">
      <!-- 0.6 -->
      <g style="fill: #262626" transform="translate(28.620625 207.097898) scale(0.165 -0.165)">
       <defs>
        <path id="DejaVuSans-36" d="M 2113 2584 
Q 1688 2584 1439 2293 
Q 1191 2003 1191 1497 
Q 1191 994 1439 701 
Q 1688 409 2113 409 
Q 2538 409 2786 701 
Q 3034 994 3034 1497 
Q 3034 2003 2786 2293 
Q 2538 2584 2113 2584 
z
M 3366 4563 
L 3366 3988 
Q 3128 4100 2886 4159 
Q 2644 4219 2406 4219 
Q 1781 4219 1451 3797 
Q 1122 3375 1075 2522 
Q 1259 2794 1537 2939 
Q 1816 3084 2150 3084 
Q 2853 3084 3261 2657 
Q 3669 2231 3669 1497 
Q 3669 778 3244 343 
Q 2819 -91 2113 -91 
Q 1303 -91 875 529 
Q 447 1150 447 2328 
Q 447 3434 972 4092 
Q 1497 4750 2381 4750 
Q 2619 4750 2861 4703 
Q 3103 4656 3366 4563 
z
" transform="scale(0.015625)"/>
       </defs>
       <use xlink:href="#DejaVuSans-30"/>
       <use xlink:href="#DejaVuSans-2e" x="63.623047"/>
       <use xlink:href="#DejaVuSans-36" x="95.410156"/>
      </g>
     </g>
    </g>
    <g id="ytick_5">
     <g id="line2d_25">
      <g>
       <use xlink:href="#m52e692a81c" x="67.360781" y="113.853187" style="fill: #262626; stroke: #262626; stroke-width: 1.875"/>
      </g>
     </g>
     <g id="text_13">
      <!-- 0.8 -->
      <g style="fill: #262626" transform="translate(28.620625 120.121898) scale(0.165 -0.165)">
       <defs>
        <path id="DejaVuSans-38" d="M 2034 2216 
Q 1584 2216 1326 1975 
Q 1069 1734 1069 1313 
Q 1069 891 1326 650 
Q 1584 409 2034 409 
Q 2484 409 2743 651 
Q 3003 894 3003 1313 
Q 3003 1734 2745 1975 
Q 2488 2216 2034 2216 
z
M 1403 2484 
Q 997 2584 770 2862 
Q 544 3141 544 3541 
Q 544 4100 942 4425 
Q 1341 4750 2034 4750 
Q 2731 4750 3128 4425 
Q 3525 4100 3525 3541 
Q 3525 3141 3298 2862 
Q 3072 2584 2669 2484 
Q 3125 2378 3379 2068 
Q 3634 1759 3634 1313 
Q 3634 634 3220 271 
Q 2806 -91 2034 -91 
Q 1263 -91 848 271 
Q 434 634 434 1313 
Q 434 1759 690 2068 
Q 947 2378 1403 2484 
z
M 1172 3481 
Q 1172 3119 1398 2916 
Q 1625 2713 2034 2713 
Q 2441 2713 2670 2916 
Q 2900 3119 2900 3481 
Q 2900 3844 2670 4047 
Q 2441 4250 2034 4250 
Q 1625 4250 1398 4047 
Q 1172 3844 1172 3481 
z
" transform="scale(0.015625)"/>
       </defs>
       <use xlink:href="#DejaVuSans-30"/>
       <use xlink:href="#DejaVuSans-2e" x="63.623047"/>
       <use xlink:href="#DejaVuSans-38" x="95.410156"/>
      </g>
     </g>
    </g>
    <g id="ytick_6">
     <g id="line2d_26">
      <g>
       <use xlink:href="#m52e692a81c" x="67.360781" y="26.877187" style="fill: #262626; stroke: #262626; stroke-width: 1.875"/>
      </g>
     </g>
     <g id="text_14">
      <!-- 1.0 -->
      <g style="fill: #262626" transform="translate(28.620625 33.145898) scale(0.165 -0.165)">
       <defs>
        <path id="DejaVuSans-31" d="M 794 531 
L 1825 531 
L 1825 4091 
L 703 3866 
L 703 4441 
L 1819 4666 
L 2450 4666 
L 2450 531 
L 3481 531 
L 3481 0 
L 794 0 
L 794 531 
z
" transform="scale(0.015625)"/>
       </defs>
       <use xlink:href="#DejaVuSans-31"/>
       <use xlink:href="#DejaVuSans-2e" x="63.623047"/>
       <use xlink:href="#DejaVuSans-30" x="95.410156"/>
      </g>
     </g>
    </g>
    <g id="text_15">
     <!-- Normalized counts -->
     <g style="fill: #262626" transform="translate(20.877187 328.297031) rotate(-90) scale(0.18 -0.18)">
      <defs>
       <path id="DejaVuSans-4e" d="M 628 4666 
L 1478 4666 
L 3547 763 
L 3547 4666 
L 4159 4666 
L 4159 0 
L 3309 0 
L 1241 3903 
L 1241 0 
L 628 0 
L 628 4666 
z
" transform="scale(0.015625)"/>
       <path id="DejaVuSans-6d" d="M 3328 2828 
Q 3544 3216 3844 3400 
Q 4144 3584 4550 3584 
Q 5097 3584 5394 3201 
Q 5691 2819 5691 2113 
L 5691 0 
L 5113 0 
L 5113 2094 
Q 5113 2597 4934 2840 
Q 4756 3084 4391 3084 
Q 3944 3084 3684 2787 
Q 3425 2491 3425 1978 
L 3425 0 
L 2847 0 
L 2847 2094 
Q 2847 2600 2669 2842 
Q 2491 3084 2119 3084 
Q 1678 3084 1418 2786 
Q 1159 2488 1159 1978 
L 1159 0 
L 581 0 
L 581 3500 
L 1159 3500 
L 1159 2956 
Q 1356 3278 1631 3431 
Q 1906 3584 2284 3584 
Q 2666 3584 2933 3390 
Q 3200 3197 3328 2828 
z
" transform="scale(0.015625)"/>
       <path id="DejaVuSans-69" d="M 603 3500 
L 1178 3500 
L 1178 0 
L 603 0 
L 603 3500 
z
M 603 4863 
L 1178 4863 
L 1178 4134 
L 603 4134 
L 603 4863 
z
" transform="scale(0.015625)"/>
       <path id="DejaVuSans-7a" d="M 353 3500 
L 3084 3500 
L 3084 2975 
L 922 459 
L 3084 459 
L 3084 0 
L 275 0 
L 275 525 
L 2438 3041 
L 353 3041 
L 353 3500 
z
" transform="scale(0.015625)"/>
       <path id="DejaVuSans-65" d="M 3597 1894 
L 3597 1613 
L 953 1613 
Q 991 1019 1311 708 
Q 1631 397 2203 397 
Q 2534 397 2845 478 
Q 3156 559 3463 722 
L 3463 178 
Q 3153 47 2828 -22 
Q 2503 -91 2169 -91 
Q 1331 -91 842 396 
Q 353 884 353 1716 
Q 353 2575 817 3079 
Q 1281 3584 2069 3584 
Q 2775 3584 3186 3129 
Q 3597 2675 3597 1894 
z
M 3022 2063 
Q 3016 2534 2758 2815 
Q 2500 3097 2075 3097 
Q 1594 3097 1305 2825 
Q 1016 2553 972 2059 
L 3022 2063 
z
" transform="scale(0.015625)"/>
       <path id="DejaVuSans-64" d="M 2906 2969 
L 2906 4863 
L 3481 4863 
L 3481 0 
L 2906 0 
L 2906 525 
Q 2725 213 2448 61 
Q 2172 -91 1784 -91 
Q 1150 -91 751 415 
Q 353 922 353 1747 
Q 353 2572 751 3078 
Q 1150 3584 1784 3584 
Q 2172 3584 2448 3432 
Q 2725 3281 2906 2969 
z
M 947 1747 
Q 947 1113 1208 752 
Q 1469 391 1925 391 
Q 2381 391 2643 752 
Q 2906 1113 2906 1747 
Q 2906 2381 2643 2742 
Q 2381 3103 1925 3103 
Q 1469 3103 1208 2742 
Q 947 2381 947 1747 
z
" transform="scale(0.015625)"/>
       <path id="DejaVuSans-20" transform="scale(0.015625)"/>
       <path id="DejaVuSans-73" d="M 2834 3397 
L 2834 2853 
Q 2591 2978 2328 3040 
Q 2066 3103 1784 3103 
Q 1356 3103 1142 2972 
Q 928 2841 928 2578 
Q 928 2378 1081 2264 
Q 1234 2150 1697 2047 
L 1894 2003 
Q 2506 1872 2764 1633 
Q 3022 1394 3022 966 
Q 3022 478 2636 193 
Q 2250 -91 1575 -91 
Q 1294 -91 989 -36 
Q 684 19 347 128 
L 347 722 
Q 666 556 975 473 
Q 1284 391 1588 391 
Q 1994 391 2212 530 
Q 2431 669 2431 922 
Q 2431 1156 2273 1281 
Q 2116 1406 1581 1522 
L 1381 1569 
Q 847 1681 609 1914 
Q 372 2147 372 2553 
Q 372 3047 722 3315 
Q 1072 3584 1716 3584 
Q 2034 3584 2315 3537 
Q 2597 3491 2834 3397 
z
" transform="scale(0.015625)"/>
      </defs>
      <use xlink:href="#DejaVuSans-4e"/>
      <use xlink:href="#DejaVuSans-6f" x="74.804688"/>
      <use xlink:href="#DejaVuSans-72" x="135.986328"/>
      <use xlink:href="#DejaVuSans-6d" x="175.349609"/>
      <use xlink:href="#DejaVuSans-61" x="272.761719"/>
      <use xlink:href="#DejaVuSans-6c" x="334.041016"/>
      <use xlink:href="#DejaVuSans-69" x="361.824219"/>
      <use xlink:href="#DejaVuSans-7a" x="389.607422"/>
      <use xlink:href="#DejaVuSans-65" x="442.097656"/>
      <use xlink:href="#DejaVuSans-64" x="503.621094"/>
      <use xlink:href="#DejaVuSans-20" x="567.097656"/>
      <use xlink:href="#DejaVuSans-63" x="598.884766"/>
      <use xlink:href="#DejaVuSans-6f" x="653.865234"/>
      <use xlink:href="#DejaVuSans-75" x="715.046875"/>
      <use xlink:href="#DejaVuSans-6e" x="778.425781"/>
      <use xlink:href="#DejaVuSans-74" x="841.804688"/>
      <use xlink:href="#DejaVuSans-73" x="881.013672"/>
     </g>
    </g>
   </g>
   <g id="PolyCollection_1">
    <defs>
     <path id="m2c75279246" d="M 67.360781 -89.155922 
L 67.360781 -75.565922 
L 108.476571 -75.565922 
L 149.59236 -75.565922 
L 190.70815 -75.565922 
L 231.823939 -75.565922 
L 272.939729 -75.565922 
L 314.055518 -75.565922 
L 355.171308 -75.565922 
L 396.287097 -75.565922 
L 437.402887 -75.565922 
L 478.518676 -75.565922 
L 519.634465 -75.565922 
L 560.750255 -75.565922 
L 601.866044 -75.565922 
L 642.981834 -75.565922 
L 684.097623 -75.565922 
L 725.213413 -75.565922 
L 766.329202 -75.565922 
L 807.444992 -75.565922 
L 848.560781 -75.565922 
L 848.560781 -92.421736 
L 848.560781 -92.421736 
L 807.444992 -97.466354 
L 766.329202 -91.437455 
L 725.213413 -95.59329 
L 684.097623 -88.508779 
L 642.981834 -88.905799 
L 601.866044 -78.811295 
L 560.750255 -96.134571 
L 519.634465 -85.67941 
L 478.518676 -87.085922 
L 437.402887 -90.914628 
L 396.287097 -85.563163 
L 355.171308 -113.381574 
L 314.055518 -92.845922 
L 272.939729 -78.860467 
L 231.823939 -85.920208 
L 190.70815 -78.740228 
L 149.59236 -79.130512 
L 108.476571 -90.061922 
L 67.360781 -89.155922 
z
" style="stroke: #8dd3c7; stroke-width: 1.5"/>
    </defs>
    <g clip-path="url(#pee3fd679de)">
     <use xlink:href="#m2c75279246" x="0" y="537.323109" style="fill: #8dd3c7; stroke: #8dd3c7; stroke-width: 1.5"/>
    </g>
   </g>
   <g id="PolyCollection_2">
    <defs>
     <path id="m9405da8486" d="M 67.360781 -105.463922 
L 67.360781 -89.155922 
L 108.476571 -90.061922 
L 149.59236 -79.130512 
L 190.70815 -78.740228 
L 231.823939 -85.920208 
L 272.939729 -78.860467 
L 314.055518 -92.845922 
L 355.171308 -113.381574 
L 396.287097 -85.563163 
L 437.402887 -90.914628 
L 478.518676 -87.085922 
L 519.634465 -85.67941 
L 560.750255 -96.134571 
L 601.866044 -78.811295 
L 642.981834 -88.905799 
L 684.097623 -88.508779 
L 725.213413 -95.59329 
L 766.329202 -91.437455 
L 807.444992 -97.466354 
L 848.560781 -92.421736 
L 848.560781 -95.792899 
L 848.560781 -95.792899 
L 807.444992 -106.852253 
L 766.329202 -97.786068 
L 725.213413 -107.037501 
L 684.097623 -106.628779 
L 642.981834 -104.913652 
L 601.866044 -98.283534 
L 560.750255 -110.826462 
L 519.634465 -89.050573 
L 478.518676 -98.605922 
L 437.402887 -116.495804 
L 396.287097 -95.560405 
L 355.171308 -113.381574 
L 314.055518 -107.245922 
L 272.939729 -92.038649 
L 231.823939 -103.17735 
L 190.70815 -85.088842 
L 149.59236 -82.695102 
L 108.476571 -101.658722 
L 67.360781 -105.463922 
z
" style="stroke: #ffffb3; stroke-width: 1.5"/>
    </defs>
    <g clip-path="url(#pee3fd679de)">
     <use xlink:href="#m9405da8486" x="0" y="537.323109" style="fill: #ffffb3; stroke: #ffffb3; stroke-width: 1.5"/>
    </g>
   </g>
   <g id="PolyCollection_3">
    <defs>
     <path id="m7e68ddbb7b" d="M 67.360781 -119.053922 
L 67.360781 -105.463922 
L 108.476571 -101.658722 
L 149.59236 -82.695102 
L 190.70815 -85.088842 
L 231.823939 -103.17735 
L 272.939729 -92.038649 
L 314.055518 -107.245922 
L 355.171308 -113.381574 
L 396.287097 -95.560405 
L 437.402887 -116.495804 
L 478.518676 -98.605922 
L 519.634465 -89.050573 
L 560.750255 -110.826462 
L 601.866044 -98.283534 
L 642.981834 -104.913652 
L 684.097623 -106.628779 
L 725.213413 -107.037501 
L 766.329202 -97.786068 
L 807.444992 -106.852253 
L 848.560781 -95.792899 
L 848.560781 -102.535224 
L 848.560781 -102.535224 
L 807.444992 -128.752684 
L 766.329202 -120.006214 
L 725.213413 -118.481711 
L 684.097623 -119.571636 
L 642.981834 -123.58948 
L 601.866044 -117.755773 
L 560.750255 -128.456733 
L 519.634465 -112.648713 
L 478.518676 -113.005922 
L 437.402887 -136.960745 
L 396.287097 -110.556267 
L 355.171308 -132.2894 
L 314.055518 -113.005922 
L 272.939729 -101.922286 
L 231.823939 -110.080208 
L 190.70815 -94.611761 
L 149.59236 -93.388873 
L 108.476571 -110.356322 
L 67.360781 -119.053922 
z
" style="stroke: #bebada; stroke-width: 1.5"/>
    </defs>
    <g clip-path="url(#pee3fd679de)">
     <use xlink:href="#m7e68ddbb7b" x="0" y="537.323109" style="fill: #bebada; stroke: #bebada; stroke-width: 1.5"/>
    </g>
   </g>
   <g id="PolyCollection_4">
    <defs>
     <path id="m87e5bbe69a" d="M 67.360781 -132.643922 
L 67.360781 -119.053922 
L 108.476571 -110.356322 
L 149.59236 -93.388873 
L 190.70815 -94.611761 
L 231.823939 -110.080208 
L 272.939729 -101.922286 
L 314.055518 -113.005922 
L 355.171308 -132.2894 
L 396.287097 -110.556267 
L 437.402887 -136.960745 
L 478.518676 -113.005922 
L 519.634465 -112.648713 
L 560.750255 -128.456733 
L 601.866044 -117.755773 
L 642.981834 -123.58948 
L 684.097623 -119.571636 
L 725.213413 -118.481711 
L 766.329202 -120.006214 
L 807.444992 -128.752684 
L 848.560781 -102.535224 
L 848.560781 -122.762201 
L 848.560781 -122.762201 
L 807.444992 -141.267217 
L 766.329202 -132.70344 
L 725.213413 -132.786975 
L 684.097623 -140.280208 
L 642.981834 -134.261382 
L 601.866044 -127.491892 
L 560.750255 -143.148625 
L 519.634465 -122.762201 
L 478.518676 -124.525922 
L 437.402887 -157.425687 
L 396.287097 -120.553508 
L 355.171308 -132.2894 
L 314.055518 -115.885922 
L 272.939729 -108.511376 
L 231.823939 -127.33735 
L 190.70815 -113.657601 
L 149.59236 -118.341004 
L 108.476571 -124.852322 
L 67.360781 -132.643922 
z
" style="stroke: #fb8072; stroke-width: 1.5"/>
    </defs>
    <g clip-path="url(#pee3fd679de)">
     <use xlink:href="#m87e5bbe69a" x="0" y="537.323109" style="fill: #fb8072; stroke: #fb8072; stroke-width: 1.5"/>
    </g>
   </g>
   <g id="PolyCollection_5">
    <defs>
     <path id="m4fecfa8323" d="M 67.360781 -151.669922 
L 67.360781 -132.643922 
L 108.476571 -124.852322 
L 149.59236 -118.341004 
L 190.70815 -113.657601 
L 231.823939 -127.33735 
L 272.939729 -108.511376 
L 314.055518 -115.885922 
L 355.171308 -132.2894 
L 396.287097 -120.553508 
L 437.402887 -157.425687 
L 478.518676 -124.525922 
L 519.634465 -122.762201 
L 560.750255 -143.148625 
L 601.866044 -127.491892 
L 642.981834 -134.261382 
L 684.097623 -140.280208 
L 725.213413 -132.786975 
L 766.329202 -132.70344 
L 807.444992 -141.267217 
L 848.560781 -122.762201 
L 848.560781 -156.473829 
L 848.560781 -156.473829 
L 807.444992 -166.296282 
L 766.329202 -154.923586 
L 725.213413 -175.702764 
L 684.097623 -173.931636 
L 642.981834 -163.609112 
L 601.866044 -166.43637 
L 560.750255 -184.285922 
L 519.634465 -156.473829 
L 478.518676 -144.685922 
L 437.402887 -183.006863 
L 396.287097 -180.536956 
L 355.171308 -132.2894 
L 314.055518 -144.685922 
L 272.939729 -134.86774 
L 231.823939 -148.045922 
L 190.70815 -148.574973 
L 149.59236 -139.728545 
L 108.476571 -174.138722 
L 67.360781 -151.669922 
z
" style="stroke: #80b1d3; stroke-width: 1.5"/>
    </defs>
    <g clip-path="url(#pee3fd679de)">
     <use xlink:href="#m4fecfa8323" x="0" y="537.323109" style="fill: #80b1d3; stroke: #80b1d3; stroke-width: 1.5"/>
    </g>
   </g>
   <g id="PolyCollection_6">
    <defs>
     <path id="me3ff3f4c0b" d="M 67.360781 -162.541922 
L 67.360781 -151.669922 
L 108.476571 -174.138722 
L 149.59236 -139.728545 
L 190.70815 -148.574973 
L 231.823939 -148.045922 
L 272.939729 -134.86774 
L 314.055518 -144.685922 
L 355.171308 -132.2894 
L 396.287097 -180.536956 
L 437.402887 -183.006863 
L 478.518676 -144.685922 
L 519.634465 -156.473829 
L 560.750255 -184.285922 
L 601.866044 -166.43637 
L 642.981834 -163.609112 
L 684.097623 -173.931636 
L 725.213413 -175.702764 
L 766.329202 -154.923586 
L 807.444992 -166.296282 
L 848.560781 -156.473829 
L 848.560781 -176.700806 
L 848.560781 -176.700806 
L 807.444992 -175.682181 
L 766.329202 -167.620812 
L 725.213413 -195.730132 
L 684.097623 -197.228779 
L 642.981834 -187.620891 
L 601.866044 -182.663235 
L 560.750255 -213.669706 
L 519.634465 -163.216154 
L 478.518676 -164.845922 
L 437.402887 -193.239334 
L 396.287097 -185.535577 
L 355.171308 -132.2894 
L 314.055518 -159.085922 
L 272.939729 -157.929558 
L 231.823939 -168.754493 
L 190.70815 -158.097893 
L 149.59236 -146.857725 
L 108.476571 -188.634722 
L 67.360781 -162.541922 
z
" style="stroke: #fdb462; stroke-width: 1.5"/>
    </defs>
    <g clip-path="url(#pee3fd679de)">
     <use xlink:href="#me3ff3f4c0b" x="0" y="537.323109" style="fill: #fdb462; stroke: #fdb462; stroke-width: 1.5"/>
    </g>
   </g>
   <g id="PolyCollection_7">
    <defs>
     <path id="m7178cbc2cc" d="M 67.360781 -173.413922 
L 67.360781 -162.541922 
L 108.476571 -188.634722 
L 149.59236 -146.857725 
L 190.70815 -158.097893 
L 231.823939 -168.754493 
L 272.939729 -157.929558 
L 314.055518 -159.085922 
L 355.171308 -132.2894 
L 396.287097 -185.535577 
L 437.402887 -193.239334 
L 478.518676 -164.845922 
L 519.634465 -163.216154 
L 560.750255 -213.669706 
L 601.866044 -182.663235 
L 642.981834 -187.620891 
L 684.097623 -197.228779 
L 725.213413 -195.730132 
L 766.329202 -167.620812 
L 807.444992 -175.682181 
L 848.560781 -176.700806 
L 848.560781 -190.185457 
L 848.560781 -190.185457 
L 807.444992 -188.196713 
L 766.329202 -180.318039 
L 725.213413 -207.174343 
L 684.097623 -202.405922 
L 642.981834 -195.624818 
L 601.866044 -192.399355 
L 560.750255 -219.546462 
L 519.634465 -183.443131 
L 478.518676 -170.605922 
L 437.402887 -198.355569 
L 396.287097 -190.534198 
L 355.171308 -170.105052 
L 314.055518 -167.725922 
L 272.939729 -171.10774 
L 231.823939 -172.205922 
L 190.70815 -167.620812 
L 149.59236 -161.116086 
L 108.476571 -200.231522 
L 67.360781 -173.413922 
z
" style="stroke: #b3de69; stroke-width: 1.5"/>
    </defs>
    <g clip-path="url(#pee3fd679de)">
     <use xlink:href="#m7178cbc2cc" x="0" y="537.323109" style="fill: #b3de69; stroke: #b3de69; stroke-width: 1.5"/>
    </g>
   </g>
   <g id="PolyCollection_8">
    <defs>
     <path id="m83ab5f5711" d="M 67.360781 -230.491922 
L 67.360781 -173.413922 
L 108.476571 -200.231522 
L 149.59236 -161.116086 
L 190.70815 -167.620812 
L 231.823939 -172.205922 
L 272.939729 -171.10774 
L 314.055518 -167.725922 
L 355.171308 -170.105052 
L 396.287097 -190.534198 
L 437.402887 -198.355569 
L 478.518676 -170.605922 
L 519.634465 -183.443131 
L 560.750255 -219.546462 
L 601.866044 -192.399355 
L 642.981834 -195.624818 
L 684.097623 -202.405922 
L 725.213413 -207.174343 
L 766.329202 -180.318039 
L 807.444992 -188.196713 
L 848.560781 -190.185457 
L 848.560781 -244.124061 
L 848.560781 -244.124061 
L 807.444992 -216.354411 
L 766.329202 -212.061104 
L 725.213413 -241.506975 
L 684.097623 -238.645922 
L 642.981834 -219.636597 
L 601.866044 -247.570698 
L 560.750255 -248.930246 
L 519.634465 -220.525922 
L 478.518676 -233.965922 
L 437.402887 -234.169216 
L 396.287097 -250.517646 
L 355.171308 -189.012878 
L 314.055518 -231.085922 
L 272.939729 -227.115013 
L 231.823939 -203.268779 
L 190.70815 -202.538185 
L 149.59236 -200.326578 
L 108.476571 -240.820322 
L 67.360781 -230.491922 
z
" style="stroke: #fccde5; stroke-width: 1.5"/>
    </defs>
    <g clip-path="url(#pee3fd679de)">
     <use xlink:href="#m83ab5f5711" x="0" y="537.323109" style="fill: #fccde5; stroke: #fccde5; stroke-width: 1.5"/>
    </g>
   </g>
   <g id="PolyCollection_9">
    <defs>
     <path id="md85207df55" d="M 67.360781 -257.671922 
L 67.360781 -230.491922 
L 108.476571 -240.820322 
L 149.59236 -200.326578 
L 190.70815 -202.538185 
L 231.823939 -203.268779 
L 272.939729 -227.115013 
L 314.055518 -231.085922 
L 355.171308 -189.012878 
L 396.287097 -250.517646 
L 437.402887 -234.169216 
L 478.518676 -233.965922 
L 519.634465 -220.525922 
L 560.750255 -248.930246 
L 601.866044 -247.570698 
L 642.981834 -219.636597 
L 684.097623 -238.645922 
L 725.213413 -241.506975 
L 766.329202 -212.061104 
L 807.444992 -216.354411 
L 848.560781 -244.124061 
L 848.560781 -267.722201 
L 848.560781 -267.722201 
L 807.444992 -247.640742 
L 766.329202 -243.80417 
L 725.213413 -284.422764 
L 684.097623 -259.354493 
L 642.981834 -267.660155 
L 601.866044 -280.024429 
L 560.750255 -272.437273 
L 519.634465 -250.866387 
L 478.518676 -251.245922 
L 437.402887 -264.866628 
L 396.287097 -275.510749 
L 355.171308 -207.920704 
L 314.055518 -254.125922 
L 272.939729 -250.176831 
L 231.823939 -248.13735 
L 190.70815 -246.978477 
L 149.59236 -239.537069 
L 108.476571 -266.913122 
L 67.360781 -257.671922 
z
" style="stroke: #d9d9d9; stroke-width: 1.5"/>
    </defs>
    <g clip-path="url(#pee3fd679de)">
     <use xlink:href="#md85207df55" x="0" y="537.323109" style="fill: #d9d9d9; stroke: #d9d9d9; stroke-width: 1.5"/>
    </g>
   </g>
   <g id="PolyCollection_10">
    <defs>
     <path id="m6db4f18efa" d="M 67.360781 -257.671922 
L 67.360781 -257.671922 
L 108.476571 -266.913122 
L 149.59236 -239.537069 
L 190.70815 -246.978477 
L 231.823939 -248.13735 
L 272.939729 -250.176831 
L 314.055518 -254.125922 
L 355.171308 -207.920704 
L 396.287097 -275.510749 
L 437.402887 -264.866628 
L 478.518676 -251.245922 
L 519.634465 -250.866387 
L 560.750255 -272.437273 
L 601.866044 -280.024429 
L 642.981834 -267.660155 
L 684.097623 -259.354493 
L 725.213413 -284.422764 
L 766.329202 -243.80417 
L 807.444992 -247.640742 
L 848.560781 -267.722201 
L 848.560781 -281.206852 
L 848.560781 -281.206852 
L 807.444992 -247.640742 
L 766.329202 -250.152783 
L 725.213413 -287.283817 
L 684.097623 -259.354493 
L 642.981834 -275.664081 
L 601.866044 -293.005922 
L 560.750255 -278.31403 
L 519.634465 -254.23755 
L 478.518676 -251.245922 
L 437.402887 -269.982863 
L 396.287097 -280.50937 
L 355.171308 -207.920704 
L 314.055518 -259.885922 
L 272.939729 -256.765922 
L 231.823939 -261.943065 
L 190.70815 -253.32709 
L 149.59236 -239.537069 
L 108.476571 -272.711522 
L 67.360781 -257.671922 
z
" style="stroke: #bc80bd; stroke-width: 1.5"/>
    </defs>
    <g clip-path="url(#pee3fd679de)">
     <use xlink:href="#m6db4f18efa" x="0" y="537.323109" style="fill: #bc80bd; stroke: #bc80bd; stroke-width: 1.5"/>
    </g>
   </g>
   <g id="PolyCollection_11">
    <defs>
     <path id="md4016ce1c5" d="M 67.360781 -282.133922 
L 67.360781 -257.671922 
L 108.476571 -272.711522 
L 149.59236 -239.537069 
L 190.70815 -253.32709 
L 231.823939 -261.943065 
L 272.939729 -256.765922 
L 314.055518 -259.885922 
L 355.171308 -207.920704 
L 396.287097 -280.50937 
L 437.402887 -269.982863 
L 478.518676 -251.245922 
L 519.634465 -254.23755 
L 560.750255 -278.31403 
L 601.866044 -293.005922 
L 642.981834 -275.664081 
L 684.097623 -259.354493 
L 725.213413 -287.283817 
L 766.329202 -250.152783 
L 807.444992 -247.640742 
L 848.560781 -281.206852 
L 848.560781 -291.32034 
L 848.560781 -291.32034 
L 807.444992 -263.283907 
L 766.329202 -275.547236 
L 725.213413 -301.58908 
L 684.097623 -282.651636 
L 642.981834 -307.679787 
L 601.866044 -302.742041 
L 560.750255 -313.574571 
L 519.634465 -274.464527 
L 478.518676 -274.285922 
L 437.402887 -269.982863 
L 396.287097 -290.506612 
L 355.171308 -226.828531 
L 314.055518 -271.405922 
L 272.939729 -283.122286 
L 231.823939 -296.45735 
L 190.70815 -285.070155 
L 149.59236 -260.92461 
L 108.476571 -298.804322 
L 67.360781 -282.133922 
z
" style="stroke: #ccebc5; stroke-width: 1.5"/>
    </defs>
    <g clip-path="url(#pee3fd679de)">
     <use xlink:href="#md4016ce1c5" x="0" y="537.323109" style="fill: #ccebc5; stroke: #ccebc5; stroke-width: 1.5"/>
    </g>
   </g>
   <g id="PolyCollection_12">
    <defs>
     <path id="m3d43e36c96" d="M 67.360781 -510.445922 
L 67.360781 -282.133922 
L 108.476571 -298.804322 
L 149.59236 -260.92461 
L 190.70815 -285.070155 
L 231.823939 -296.45735 
L 272.939729 -283.122286 
L 314.055518 -271.405922 
L 355.171308 -226.828531 
L 396.287097 -290.506612 
L 437.402887 -269.982863 
L 478.518676 -274.285922 
L 519.634465 -274.464527 
L 560.750255 -313.574571 
L 601.866044 -302.742041 
L 642.981834 -307.679787 
L 684.097623 -282.651636 
L 725.213413 -301.58908 
L 766.329202 -275.547236 
L 807.444992 -263.283907 
L 848.560781 -291.32034 
L 848.560781 -510.445922 
L 848.560781 -510.445922 
L 807.444992 -510.445922 
L 766.329202 -510.445922 
L 725.213413 -510.445922 
L 684.097623 -510.445922 
L 642.981834 -510.445922 
L 601.866044 -510.445922 
L 560.750255 -510.445922 
L 519.634465 -510.445922 
L 478.518676 -510.445922 
L 437.402887 -510.445922 
L 396.287097 -510.445922 
L 355.171308 -510.445922 
L 314.055518 -510.445922 
L 272.939729 -510.445922 
L 231.823939 -510.445922 
L 190.70815 -510.445922 
L 149.59236 -510.445922 
L 108.476571 -510.445922 
L 67.360781 -510.445922 
z
" style="stroke: #e6daa6; stroke-width: 1.5"/>
    </defs>
    <g clip-path="url(#pee3fd679de)">
     <use xlink:href="#m3d43e36c96" x="0" y="537.323109" style="fill: #e6daa6; stroke: #e6daa6; stroke-width: 1.5"/>
    </g>
   </g>
   <g id="line2d_27">
    <path d="M 67.360781 448.167187 
L 108.476571 447.261187 
L 149.59236 458.192597 
L 190.70815 458.582881 
L 231.823939 451.402902 
L 272.939729 458.462642 
L 314.055518 444.477187 
L 355.171308 423.941535 
L 396.287097 451.759946 
L 437.402887 446.408482 
L 478.518676 450.237187 
L 519.634465 451.643699 
L 560.750255 441.188539 
L 601.866044 458.511814 
L 642.981834 448.41731 
L 684.097623 448.81433 
L 725.213413 441.729819 
L 766.329202 445.885655 
L 807.444992 439.856756 
L 848.560781 444.901374 
" clip-path="url(#pee3fd679de)" style="fill: none; stroke: #8dd3c7; stroke-width: 2.25; stroke-linecap: round"/>
   </g>
   <g id="line2d_28">
    <path d="M 67.360781 431.859187 
L 108.476571 435.664387 
L 149.59236 454.628007 
L 190.70815 452.234268 
L 231.823939 434.145759 
L 272.939729 445.28446 
L 314.055518 430.077187 
L 355.171308 423.941535 
L 396.287097 441.762705 
L 437.402887 420.827305 
L 478.518676 438.717187 
L 519.634465 448.272536 
L 560.750255 426.496647 
L 601.866044 439.039576 
L 642.981834 432.409457 
L 684.097623 430.69433 
L 725.213413 430.285609 
L 766.329202 439.537042 
L 807.444992 430.470857 
L 848.560781 441.530211 
" clip-path="url(#pee3fd679de)" style="fill: none; stroke: #ffffb3; stroke-width: 2.25; stroke-linecap: round"/>
   </g>
   <g id="line2d_29">
    <path d="M 67.360781 418.269187 
L 108.476571 426.966787 
L 149.59236 443.934237 
L 190.70815 442.711348 
L 231.823939 427.242902 
L 272.939729 435.400824 
L 314.055518 424.317187 
L 355.171308 405.033709 
L 396.287097 426.766843 
L 437.402887 400.362364 
L 478.518676 424.317187 
L 519.634465 424.674397 
L 560.750255 408.866377 
L 601.866044 419.567337 
L 642.981834 413.733629 
L 684.097623 417.751473 
L 725.213413 418.841398 
L 766.329202 417.316896 
L 807.444992 408.570425 
L 848.560781 434.787885 
" clip-path="url(#pee3fd679de)" style="fill: none; stroke: #bebada; stroke-width: 2.25; stroke-linecap: round"/>
   </g>
   <g id="line2d_30">
    <path d="M 67.360781 404.679187 
L 108.476571 412.470787 
L 149.59236 418.982106 
L 190.70815 423.665509 
L 231.823939 409.985759 
L 272.939729 428.811733 
L 314.055518 421.437187 
L 355.171308 405.033709 
L 396.287097 416.769601 
L 437.402887 379.897423 
L 478.518676 412.797187 
L 519.634465 414.560908 
L 560.750255 394.174485 
L 601.866044 409.831217 
L 642.981834 403.061727 
L 684.097623 397.042902 
L 725.213413 404.536135 
L 766.329202 404.619669 
L 807.444992 396.055893 
L 848.560781 414.560908 
" clip-path="url(#pee3fd679de)" style="fill: none; stroke: #fb8072; stroke-width: 2.25; stroke-linecap: round"/>
   </g>
   <g id="line2d_31">
    <path d="M 67.360781 385.653187 
L 108.476571 363.184387 
L 149.59236 397.594565 
L 190.70815 388.748136 
L 231.823939 389.277187 
L 272.939729 402.455369 
L 314.055518 392.637187 
L 355.171308 405.033709 
L 396.287097 356.786153 
L 437.402887 354.316246 
L 478.518676 392.637187 
L 519.634465 380.849281 
L 560.750255 353.037187 
L 601.866044 370.88674 
L 642.981834 373.713997 
L 684.097623 363.391473 
L 725.213413 361.620345 
L 766.329202 382.399523 
L 807.444992 371.026828 
L 848.560781 380.849281 
" clip-path="url(#pee3fd679de)" style="fill: none; stroke: #80b1d3; stroke-width: 2.25; stroke-linecap: round"/>
   </g>
   <g id="line2d_32">
    <path d="M 67.360781 374.781187 
L 108.476571 348.688387 
L 149.59236 390.465384 
L 190.70815 379.225217 
L 231.823939 368.568616 
L 272.939729 379.393551 
L 314.055518 378.237187 
L 355.171308 405.033709 
L 396.287097 351.787532 
L 437.402887 344.083776 
L 478.518676 372.477187 
L 519.634465 374.106955 
L 560.750255 323.653404 
L 601.866044 354.659874 
L 642.981834 349.702218 
L 684.097623 340.09433 
L 725.213413 341.592977 
L 766.329202 369.702297 
L 807.444992 361.640929 
L 848.560781 360.622304 
" clip-path="url(#pee3fd679de)" style="fill: none; stroke: #fdb462; stroke-width: 2.25; stroke-linecap: round"/>
   </g>
   <g id="line2d_33">
    <path d="M 67.360781 363.909187 
L 108.476571 337.091587 
L 149.59236 376.207024 
L 190.70815 369.702297 
L 231.823939 365.117187 
L 272.939729 366.215369 
L 314.055518 369.597187 
L 355.171308 367.218057 
L 396.287097 346.788912 
L 437.402887 338.96754 
L 478.518676 366.717187 
L 519.634465 353.879978 
L 560.750255 317.776647 
L 601.866044 344.923755 
L 642.981834 341.698292 
L 684.097623 334.917187 
L 725.213413 330.148766 
L 766.329202 357.005071 
L 807.444992 349.126396 
L 848.560781 347.137653 
" clip-path="url(#pee3fd679de)" style="fill: none; stroke: #b3de69; stroke-width: 2.25; stroke-linecap: round"/>
   </g>
   <g id="line2d_34">
    <path d="M 67.360781 306.831187 
L 108.476571 296.502787 
L 149.59236 336.996532 
L 190.70815 334.784925 
L 231.823939 334.05433 
L 272.939729 310.208097 
L 314.055518 306.237187 
L 355.171308 348.310231 
L 396.287097 286.805463 
L 437.402887 303.153893 
L 478.518676 303.357187 
L 519.634465 316.797187 
L 560.750255 288.392863 
L 601.866044 289.752411 
L 642.981834 317.686513 
L 684.097623 298.677187 
L 725.213413 295.816135 
L 766.329202 325.262005 
L 807.444992 320.968698 
L 848.560781 293.199048 
" clip-path="url(#pee3fd679de)" style="fill: none; stroke: #fccde5; stroke-width: 2.25; stroke-linecap: round"/>
   </g>
   <g id="line2d_35">
    <path d="M 67.360781 279.651187 
L 108.476571 270.409987 
L 149.59236 297.78604 
L 190.70815 290.344633 
L 231.823939 289.185759 
L 272.939729 287.146278 
L 314.055518 283.197187 
L 355.171308 329.402405 
L 396.287097 261.81236 
L 437.402887 272.456482 
L 478.518676 286.077187 
L 519.634465 286.456722 
L 560.750255 264.885836 
L 601.866044 257.29868 
L 642.981834 269.662954 
L 684.097623 277.968616 
L 725.213413 252.900345 
L 766.329202 293.518939 
L 807.444992 289.682367 
L 848.560781 269.600908 
" clip-path="url(#pee3fd679de)" style="fill: none; stroke: #d9d9d9; stroke-width: 2.25; stroke-linecap: round"/>
   </g>
   <g id="line2d_36">
    <path d="M 67.360781 279.651187 
L 108.476571 264.611587 
L 149.59236 297.78604 
L 190.70815 283.99602 
L 231.823939 275.380045 
L 272.939729 280.557187 
L 314.055518 277.437187 
L 355.171308 329.402405 
L 396.287097 256.813739 
L 437.402887 267.340246 
L 478.518676 286.077187 
L 519.634465 283.08556 
L 560.750255 259.009079 
L 601.866044 244.317187 
L 642.981834 261.659028 
L 684.097623 277.968616 
L 725.213413 250.039293 
L 766.329202 287.170326 
L 807.444992 289.682367 
L 848.560781 256.116257 
" clip-path="url(#pee3fd679de)" style="fill: none; stroke: #bc80bd; stroke-width: 2.25; stroke-linecap: round"/>
   </g>
   <g id="line2d_37">
    <path d="M 67.360781 255.189187 
L 108.476571 238.518787 
L 149.59236 276.398499 
L 190.70815 252.252954 
L 231.823939 240.865759 
L 272.939729 254.200824 
L 314.055518 265.917187 
L 355.171308 310.494579 
L 396.287097 246.816498 
L 437.402887 267.340246 
L 478.518676 263.037187 
L 519.634465 262.858583 
L 560.750255 223.748539 
L 601.866044 234.581068 
L 642.981834 229.643322 
L 684.097623 254.671473 
L 725.213413 235.73403 
L 766.329202 261.775874 
L 807.444992 274.039202 
L 848.560781 246.002769 
" clip-path="url(#pee3fd679de)" style="fill: none; stroke: #ccebc5; stroke-width: 2.25; stroke-linecap: round"/>
   </g>
   <g id="line2d_38">
    <path d="M 67.360781 26.877187 
L 108.476571 26.877187 
L 149.59236 26.877187 
L 190.70815 26.877187 
L 231.823939 26.877187 
L 272.939729 26.877187 
L 314.055518 26.877187 
L 355.171308 26.877187 
L 396.287097 26.877187 
L 437.402887 26.877187 
L 478.518676 26.877187 
L 519.634465 26.877187 
L 560.750255 26.877187 
L 601.866044 26.877187 
L 642.981834 26.877187 
L 684.097623 26.877187 
L 725.213413 26.877187 
L 766.329202 26.877187 
L 807.444992 26.877187 
L 848.560781 26.877187 
" clip-path="url(#pee3fd679de)" style="fill: none; stroke: #e6daa6; stroke-width: 2.25; stroke-linecap: round"/>
   </g>
   <g id="patch_3">
    <path d="M 67.360781 461.757187 
L 67.360781 26.877187 
" style="fill: none; stroke: #262626; stroke-width: 1.875; stroke-linejoin: miter; stroke-linecap: square"/>
   </g>
   <g id="patch_4">
    <path d="M 848.560781 461.757187 
L 848.560781 26.877187 
" style="fill: none; stroke: #262626; stroke-width: 1.875; stroke-linejoin: miter; stroke-linecap: square"/>
   </g>
   <g id="patch_5">
    <path d="M 67.360781 461.757187 
L 848.560781 461.757187 
" style="fill: none; stroke: #262626; stroke-width: 1.875; stroke-linejoin: miter; stroke-linecap: square"/>
   </g>
   <g id="patch_6">
    <path d="M 67.360781 26.877187 
L 848.560781 26.877187 
" style="fill: none; stroke: #262626; stroke-width: 1.875; stroke-linejoin: miter; stroke-linecap: square"/>
   </g>
   <g id="text_16">
    <!-- $\it{E. coli}$, CPH -->
    <g style="fill: #262626" transform="translate(407.920781 20.877187) scale(0.18 -0.18)">
     <defs>
      <path id="DejaVuSans-Oblique-45" d="M 1081 4666 
L 4031 4666 
L 3928 4134 
L 1606 4134 
L 1338 2753 
L 3566 2753 
L 3463 2222 
L 1234 2222 
L 909 531 
L 3284 531 
L 3181 0 
L 172 0 
L 1081 4666 
z
" transform="scale(0.015625)"/>
      <path id="DejaVuSans-Oblique-63" d="M 3431 3366 
L 3316 2797 
Q 3109 2947 2876 3022 
Q 2644 3097 2394 3097 
Q 2119 3097 1870 3000 
Q 1622 2903 1453 2725 
Q 1184 2453 1037 2087 
Q 891 1722 891 1331 
Q 891 859 1127 628 
Q 1363 397 1844 397 
Q 2081 397 2348 469 
Q 2616 541 2906 684 
L 2797 116 
Q 2547 13 2283 -39 
Q 2019 -91 1741 -91 
Q 1044 -91 669 257 
Q 294 606 294 1253 
Q 294 1797 489 2255 
Q 684 2713 1069 3078 
Q 1331 3328 1684 3456 
Q 2038 3584 2456 3584 
Q 2700 3584 2940 3529 
Q 3181 3475 3431 3366 
z
" transform="scale(0.015625)"/>
      <path id="DejaVuSans-Oblique-6f" d="M 1625 -91 
Q 1009 -91 651 289 
Q 294 669 294 1325 
Q 294 1706 417 2101 
Q 541 2497 738 2766 
Q 1047 3184 1428 3384 
Q 1809 3584 2291 3584 
Q 2888 3584 3255 3212 
Q 3622 2841 3622 2241 
Q 3622 1825 3500 1412 
Q 3378 1000 3181 728 
Q 2875 309 2494 109 
Q 2113 -91 1625 -91 
z
M 891 1344 
Q 891 869 1089 633 
Q 1288 397 1691 397 
Q 2269 397 2648 901 
Q 3028 1406 3028 2181 
Q 3028 2634 2825 2865 
Q 2622 3097 2228 3097 
Q 1903 3097 1650 2945 
Q 1397 2794 1197 2484 
Q 1050 2253 970 1956 
Q 891 1659 891 1344 
z
" transform="scale(0.015625)"/>
      <path id="DejaVuSans-Oblique-6c" d="M 1172 4863 
L 1747 4863 
L 800 0 
L 225 0 
L 1172 4863 
z
" transform="scale(0.015625)"/>
      <path id="DejaVuSans-Oblique-69" d="M 1172 4863 
L 1747 4863 
L 1606 4134 
L 1031 4134 
L 1172 4863 
z
M 909 3500 
L 1484 3500 
L 800 0 
L 225 0 
L 909 3500 
z
" transform="scale(0.015625)"/>
      <path id="DejaVuSans-2c" d="M 750 794 
L 1409 794 
L 1409 256 
L 897 -744 
L 494 -744 
L 750 256 
L 750 794 
z
" transform="scale(0.015625)"/>
      <path id="DejaVuSans-43" d="M 4122 4306 
L 4122 3641 
Q 3803 3938 3442 4084 
Q 3081 4231 2675 4231 
Q 1875 4231 1450 3742 
Q 1025 3253 1025 2328 
Q 1025 1406 1450 917 
Q 1875 428 2675 428 
Q 3081 428 3442 575 
Q 3803 722 4122 1019 
L 4122 359 
Q 3791 134 3420 21 
Q 3050 -91 2638 -91 
Q 1578 -91 968 557 
Q 359 1206 359 2328 
Q 359 3453 968 4101 
Q 1578 4750 2638 4750 
Q 3056 4750 3426 4639 
Q 3797 4528 4122 4306 
z
" transform="scale(0.015625)"/>
      <path id="DejaVuSans-50" d="M 1259 4147 
L 1259 2394 
L 2053 2394 
Q 2494 2394 2734 2622 
Q 2975 2850 2975 3272 
Q 2975 3691 2734 3919 
Q 2494 4147 2053 4147 
L 1259 4147 
z
M 628 4666 
L 2053 4666 
Q 2838 4666 3239 4311 
Q 3641 3956 3641 3272 
Q 3641 2581 3239 2228 
Q 2838 1875 2053 1875 
L 1259 1875 
L 1259 0 
L 628 0 
L 628 4666 
z
" transform="scale(0.015625)"/>
      <path id="DejaVuSans-48" d="M 628 4666 
L 1259 4666 
L 1259 2753 
L 3553 2753 
L 3553 4666 
L 4184 4666 
L 4184 0 
L 3553 0 
L 3553 2222 
L 1259 2222 
L 1259 0 
L 628 0 
L 628 4666 
z
" transform="scale(0.015625)"/>
     </defs>
     <use xlink:href="#DejaVuSans-Oblique-45" transform="translate(0 0.015625)"/>
     <use xlink:href="#DejaVuSans-2e" transform="translate(63.183594 0.015625)"/>
     <use xlink:href="#DejaVuSans-Oblique-63" transform="translate(114.453125 0.015625)"/>
     <use xlink:href="#DejaVuSans-Oblique-6f" transform="translate(169.433594 0.015625)"/>
     <use xlink:href="#DejaVuSans-Oblique-6c" transform="translate(230.615234 0.015625)"/>
     <use xlink:href="#DejaVuSans-Oblique-69" transform="translate(258.398438 0.015625)"/>
     <use xlink:href="#DejaVuSans-2c" transform="translate(286.181641 0.015625)"/>
     <use xlink:href="#DejaVuSans-20" transform="translate(317.96875 0.015625)"/>
     <use xlink:href="#DejaVuSans-43" transform="translate(349.755859 0.015625)"/>
     <use xlink:href="#DejaVuSans-50" transform="translate(419.580078 0.015625)"/>
     <use xlink:href="#DejaVuSans-48" transform="translate(479.882812 0.015625)"/>
    </g>
   </g>
   <g id="legend_1">
    <g id="patch_7">
     <path d="M 899.170781 356.374687 
L 1004.523281 356.374687 
Q 1007.823281 356.374687 1007.823281 353.074687 
L 1007.823281 38.427187 
Q 1007.823281 35.127187 1004.523281 35.127187 
L 899.170781 35.127187 
Q 895.870781 35.127187 895.870781 38.427187 
L 895.870781 353.074687 
Q 895.870781 356.374687 899.170781 356.374687 
z
" style="fill: #ffffff; opacity: 0.8; stroke: #cccccc; stroke-width: 1.5; stroke-linejoin: miter"/>
    </g>
    <g id="text_17">
     <!-- ST &gt; 100 -->
     <g style="fill: #262626" transform="translate(910.195313 55.404375) scale(0.18 -0.18)">
      <defs>
       <path id="DejaVuSans-53" d="M 3425 4513 
L 3425 3897 
Q 3066 4069 2747 4153 
Q 2428 4238 2131 4238 
Q 1616 4238 1336 4038 
Q 1056 3838 1056 3469 
Q 1056 3159 1242 3001 
Q 1428 2844 1947 2747 
L 2328 2669 
Q 3034 2534 3370 2195 
Q 3706 1856 3706 1288 
Q 3706 609 3251 259 
Q 2797 -91 1919 -91 
Q 1588 -91 1214 -16 
Q 841 59 441 206 
L 441 856 
Q 825 641 1194 531 
Q 1563 422 1919 422 
Q 2459 422 2753 634 
Q 3047 847 3047 1241 
Q 3047 1584 2836 1778 
Q 2625 1972 2144 2069 
L 1759 2144 
Q 1053 2284 737 2584 
Q 422 2884 422 3419 
Q 422 4038 858 4394 
Q 1294 4750 2059 4750 
Q 2388 4750 2728 4690 
Q 3069 4631 3425 4513 
z
" transform="scale(0.015625)"/>
       <path id="DejaVuSans-54" d="M -19 4666 
L 3928 4666 
L 3928 4134 
L 2272 4134 
L 2272 0 
L 1638 0 
L 1638 4134 
L -19 4134 
L -19 4666 
z
" transform="scale(0.015625)"/>
       <path id="DejaVuSans-3e" d="M 678 3150 
L 678 3719 
L 4684 2266 
L 4684 1747 
L 678 294 
L 678 863 
L 3897 2003 
L 678 3150 
z
" transform="scale(0.015625)"/>
      </defs>
      <use xlink:href="#DejaVuSans-53"/>
      <use xlink:href="#DejaVuSans-54" x="63.476562"/>
      <use xlink:href="#DejaVuSans-20" x="124.560547"/>
      <use xlink:href="#DejaVuSans-3e" x="156.347656"/>
      <use xlink:href="#DejaVuSans-20" x="240.136719"/>
      <use xlink:href="#DejaVuSans-31" x="271.923828"/>
      <use xlink:href="#DejaVuSans-30" x="335.546875"/>
      <use xlink:href="#DejaVuSans-30" x="399.169922"/>
     </g>
    </g>
    <g id="patch_8">
     <path d="M 902.470781 79.935234 
L 935.470781 79.935234 
L 935.470781 68.385234 
L 902.470781 68.385234 
z
" style="fill: #8dd3c7; stroke: #8dd3c7; stroke-width: 1.5; stroke-linejoin: miter"/>
    </g>
    <g id="text_18">
     <!-- 10 -->
     <g style="fill: #262626" transform="translate(948.670781 79.935234) scale(0.165 -0.165)">
      <use xlink:href="#DejaVuSans-31"/>
      <use xlink:href="#DejaVuSans-30" x="63.623047"/>
     </g>
    </g>
    <g id="patch_9">
     <path d="M 902.470781 104.154141 
L 935.470781 104.154141 
L 935.470781 92.604141 
L 902.470781 92.604141 
z
" style="fill: #ffffb3; stroke: #ffffb3; stroke-width: 1.5; stroke-linejoin: miter"/>
    </g>
    <g id="text_19">
     <!-- 1193 -->
     <g style="fill: #262626" transform="translate(948.670781 104.154141) scale(0.165 -0.165)">
      <defs>
       <path id="DejaVuSans-39" d="M 703 97 
L 703 672 
Q 941 559 1184 500 
Q 1428 441 1663 441 
Q 2288 441 2617 861 
Q 2947 1281 2994 2138 
Q 2813 1869 2534 1725 
Q 2256 1581 1919 1581 
Q 1219 1581 811 2004 
Q 403 2428 403 3163 
Q 403 3881 828 4315 
Q 1253 4750 1959 4750 
Q 2769 4750 3195 4129 
Q 3622 3509 3622 2328 
Q 3622 1225 3098 567 
Q 2575 -91 1691 -91 
Q 1453 -91 1209 -44 
Q 966 3 703 97 
z
M 1959 2075 
Q 2384 2075 2632 2365 
Q 2881 2656 2881 3163 
Q 2881 3666 2632 3958 
Q 2384 4250 1959 4250 
Q 1534 4250 1286 3958 
Q 1038 3666 1038 3163 
Q 1038 2656 1286 2365 
Q 1534 2075 1959 2075 
z
" transform="scale(0.015625)"/>
       <path id="DejaVuSans-33" d="M 2597 2516 
Q 3050 2419 3304 2112 
Q 3559 1806 3559 1356 
Q 3559 666 3084 287 
Q 2609 -91 1734 -91 
Q 1441 -91 1130 -33 
Q 819 25 488 141 
L 488 750 
Q 750 597 1062 519 
Q 1375 441 1716 441 
Q 2309 441 2620 675 
Q 2931 909 2931 1356 
Q 2931 1769 2642 2001 
Q 2353 2234 1838 2234 
L 1294 2234 
L 1294 2753 
L 1863 2753 
Q 2328 2753 2575 2939 
Q 2822 3125 2822 3475 
Q 2822 3834 2567 4026 
Q 2313 4219 1838 4219 
Q 1578 4219 1281 4162 
Q 984 4106 628 3988 
L 628 4550 
Q 988 4650 1302 4700 
Q 1616 4750 1894 4750 
Q 2613 4750 3031 4423 
Q 3450 4097 3450 3541 
Q 3450 3153 3228 2886 
Q 3006 2619 2597 2516 
z
" transform="scale(0.015625)"/>
      </defs>
      <use xlink:href="#DejaVuSans-31"/>
      <use xlink:href="#DejaVuSans-31" x="63.623047"/>
      <use xlink:href="#DejaVuSans-39" x="127.246094"/>
      <use xlink:href="#DejaVuSans-33" x="190.869141"/>
     </g>
    </g>
    <g id="patch_10">
     <path d="M 902.470781 128.373047 
L 935.470781 128.373047 
L 935.470781 116.823047 
L 902.470781 116.823047 
z
" style="fill: #bebada; stroke: #bebada; stroke-width: 1.5; stroke-linejoin: miter"/>
    </g>
    <g id="text_20">
     <!-- 12 -->
     <g style="fill: #262626" transform="translate(948.670781 128.373047) scale(0.165 -0.165)">
      <use xlink:href="#DejaVuSans-31"/>
      <use xlink:href="#DejaVuSans-32" x="63.623047"/>
     </g>
    </g>
    <g id="patch_11">
     <path d="M 902.470781 152.591953 
L 935.470781 152.591953 
L 935.470781 141.041953 
L 902.470781 141.041953 
z
" style="fill: #fb8072; stroke: #fb8072; stroke-width: 1.5; stroke-linejoin: miter"/>
    </g>
    <g id="text_21">
     <!-- 127 -->
     <g style="fill: #262626" transform="translate(948.670781 152.591953) scale(0.165 -0.165)">
      <defs>
       <path id="DejaVuSans-37" d="M 525 4666 
L 3525 4666 
L 3525 4397 
L 1831 0 
L 1172 0 
L 2766 4134 
L 525 4134 
L 525 4666 
z
" transform="scale(0.015625)"/>
      </defs>
      <use xlink:href="#DejaVuSans-31"/>
      <use xlink:href="#DejaVuSans-32" x="63.623047"/>
      <use xlink:href="#DejaVuSans-37" x="127.246094"/>
     </g>
    </g>
    <g id="patch_12">
     <path d="M 902.470781 176.810859 
L 935.470781 176.810859 
L 935.470781 165.260859 
L 902.470781 165.260859 
z
" style="fill: #80b1d3; stroke: #80b1d3; stroke-width: 1.5; stroke-linejoin: miter"/>
    </g>
    <g id="text_22">
     <!-- 131 -->
     <g style="fill: #262626" transform="translate(948.670781 176.810859) scale(0.165 -0.165)">
      <use xlink:href="#DejaVuSans-31"/>
      <use xlink:href="#DejaVuSans-33" x="63.623047"/>
      <use xlink:href="#DejaVuSans-31" x="127.246094"/>
     </g>
    </g>
    <g id="patch_13">
     <path d="M 902.470781 201.029766 
L 935.470781 201.029766 
L 935.470781 189.479766 
L 902.470781 189.479766 
z
" style="fill: #fdb462; stroke: #fdb462; stroke-width: 1.5; stroke-linejoin: miter"/>
    </g>
    <g id="text_23">
     <!-- 141 -->
     <g style="fill: #262626" transform="translate(948.670781 201.029766) scale(0.165 -0.165)">
      <use xlink:href="#DejaVuSans-31"/>
      <use xlink:href="#DejaVuSans-34" x="63.623047"/>
      <use xlink:href="#DejaVuSans-31" x="127.246094"/>
     </g>
    </g>
    <g id="patch_14">
     <path d="M 902.470781 225.248672 
L 935.470781 225.248672 
L 935.470781 213.698672 
L 902.470781 213.698672 
z
" style="fill: #b3de69; stroke: #b3de69; stroke-width: 1.5; stroke-linejoin: miter"/>
    </g>
    <g id="text_24">
     <!-- 58 -->
     <g style="fill: #262626" transform="translate(948.670781 225.248672) scale(0.165 -0.165)">
      <defs>
       <path id="DejaVuSans-35" d="M 691 4666 
L 3169 4666 
L 3169 4134 
L 1269 4134 
L 1269 2991 
Q 1406 3038 1543 3061 
Q 1681 3084 1819 3084 
Q 2600 3084 3056 2656 
Q 3513 2228 3513 1497 
Q 3513 744 3044 326 
Q 2575 -91 1722 -91 
Q 1428 -91 1123 -41 
Q 819 9 494 109 
L 494 744 
Q 775 591 1075 516 
Q 1375 441 1709 441 
Q 2250 441 2565 725 
Q 2881 1009 2881 1497 
Q 2881 1984 2565 2268 
Q 2250 2553 1709 2553 
Q 1456 2553 1204 2497 
Q 953 2441 691 2322 
L 691 4666 
z
" transform="scale(0.015625)"/>
      </defs>
      <use xlink:href="#DejaVuSans-35"/>
      <use xlink:href="#DejaVuSans-38" x="63.623047"/>
     </g>
    </g>
    <g id="patch_15">
     <path d="M 902.470781 249.467578 
L 935.470781 249.467578 
L 935.470781 237.917578 
L 902.470781 237.917578 
z
" style="fill: #fccde5; stroke: #fccde5; stroke-width: 1.5; stroke-linejoin: miter"/>
    </g>
    <g id="text_25">
     <!-- 69 -->
     <g style="fill: #262626" transform="translate(948.670781 249.467578) scale(0.165 -0.165)">
      <use xlink:href="#DejaVuSans-36"/>
      <use xlink:href="#DejaVuSans-39" x="63.623047"/>
     </g>
    </g>
    <g id="patch_16">
     <path d="M 902.470781 273.686484 
L 935.470781 273.686484 
L 935.470781 262.136484 
L 902.470781 262.136484 
z
" style="fill: #d9d9d9; stroke: #d9d9d9; stroke-width: 1.5; stroke-linejoin: miter"/>
    </g>
    <g id="text_26">
     <!-- 73 -->
     <g style="fill: #262626" transform="translate(948.670781 273.686484) scale(0.165 -0.165)">
      <use xlink:href="#DejaVuSans-37"/>
      <use xlink:href="#DejaVuSans-33" x="63.623047"/>
     </g>
    </g>
    <g id="patch_17">
     <path d="M 902.470781 297.905391 
L 935.470781 297.905391 
L 935.470781 286.355391 
L 902.470781 286.355391 
z
" style="fill: #bc80bd; stroke: #bc80bd; stroke-width: 1.5; stroke-linejoin: miter"/>
    </g>
    <g id="text_27">
     <!-- 88 -->
     <g style="fill: #262626" transform="translate(948.670781 297.905391) scale(0.165 -0.165)">
      <use xlink:href="#DejaVuSans-38"/>
      <use xlink:href="#DejaVuSans-38" x="63.623047"/>
     </g>
    </g>
    <g id="patch_18">
     <path d="M 902.470781 322.124297 
L 935.470781 322.124297 
L 935.470781 310.574297 
L 902.470781 310.574297 
z
" style="fill: #ccebc5; stroke: #ccebc5; stroke-width: 1.5; stroke-linejoin: miter"/>
    </g>
    <g id="text_28">
     <!-- 95 -->
     <g style="fill: #262626" transform="translate(948.670781 322.124297) scale(0.165 -0.165)">
      <use xlink:href="#DejaVuSans-39"/>
      <use xlink:href="#DejaVuSans-35" x="63.623047"/>
     </g>
    </g>
    <g id="patch_19">
     <path d="M 902.470781 346.343203 
L 935.470781 346.343203 
L 935.470781 334.793203 
L 902.470781 334.793203 
z
" style="fill: #e6daa6; stroke: #e6daa6; stroke-width: 1.5; stroke-linejoin: miter"/>
    </g>
    <g id="text_29">
     <!-- others -->
     <g style="fill: #262626" transform="translate(948.670781 346.343203) scale(0.165 -0.165)">
      <use xlink:href="#DejaVuSans-6f"/>
      <use xlink:href="#DejaVuSans-74" x="61.181641"/>
      <use xlink:href="#DejaVuSans-68" x="100.390625"/>
      <use xlink:href="#DejaVuSans-65" x="163.769531"/>
      <use xlink:href="#DejaVuSans-72" x="225.292969"/>
      <use xlink:href="#DejaVuSans-73" x="266.40625"/>
     </g>
    </g>
   </g>
  </g>
 </g>
 <defs>
  <clipPath id="pee3fd679de">
   <rect x="67.360781" y="26.877187" width="781.2" height="434.88"/>
  </clipPath>
 </defs>
</svg>
