<?xml version="1.0" encoding="utf-8" standalone="no"?>
<!DOCTYPE svg PUBLIC "-//W3C//DTD SVG 1.1//EN"
  "http://www.w3.org/Graphics/SVG/1.1/DTD/svg11.dtd">
<svg xmlns:xlink="http://www.w3.org/1999/xlink" width="1015.023281pt" height="537.325922pt" viewBox="0 0 1015.023281 537.325922" xmlns="http://www.w3.org/2000/svg" version="1.1">
 <metadata>
  <rdf:RDF xmlns:dc="http://purl.org/dc/elements/1.1/" xmlns:cc="http://creativecommons.org/ns#" xmlns:rdf="http://www.w3.org/1999/02/22-rdf-syntax-ns#">
   <cc:Work>
    <dc:type rdf:resource="http://purl.org/dc/dcmitype/StillImage"/>
    <dc:date>2024-06-17T16:30:10.862630</dc:date>
    <dc:format>image/svg+xml</dc:format>
    <dc:creator>
     <cc:Agent>
      <dc:title>Matplotlib v3.8.0, https://matplotlib.org/</dc:title>
     </cc:Agent>
    </dc:creator>
   </cc:Work>
  </rdf:RDF>
 </metadata>
 <defs>
  <style type="text/css">*{stroke-linejoin: round; stroke-linecap: butt}</style>
 </defs>
 <g id="figure_1">
  <g id="patch_1">
   <path d="M 0 537.325922 
L 1015.023281 537.325922 
L 1015.023281 0 
L 0 0 
L 0 537.325922 
z
" style="fill: none"/>
  </g>
  <g id="axes_1">
   <g id="patch_2">
    <path d="M 67.360781 461.76 
L 848.560781 461.76 
L 848.560781 26.88 
L 67.360781 26.88 
L 67.360781 461.76 
z
" style="fill: none"/>
   </g>
   <g id="matplotlib.axis_1">
    <g id="xtick_1">
     <g id="line2d_1">
      <defs>
       <path id="meefb9583e4" d="M 0 0 
L 0 9 
" style="stroke: #262626; stroke-width: 1.875"/>
      </defs>
      <g>
       <use xlink:href="#meefb9583e4" x="478.518676" y="461.76" style="fill: #262626; stroke: #262626; stroke-width: 1.875"/>
      </g>
     </g>
     <g id="text_1">
      <!-- Jan -->
      <g style="fill: #262626" transform="translate(465.800785 486.797422) scale(0.165 -0.165)">
       <defs>
        <path id="DejaVuSans-4a" d="M 628 4666 
L 1259 4666 
L 1259 325 
Q 1259 -519 939 -900 
Q 619 -1281 -91 -1281 
L -331 -1281 
L -331 -750 
L -134 -750 
Q 284 -750 456 -515 
Q 628 -281 628 325 
L 628 4666 
z
" transform="scale(0.015625)"/>
        <path id="DejaVuSans-61" d="M 2194 1759 
Q 1497 1759 1228 1600 
Q 959 1441 959 1056 
Q 959 750 1161 570 
Q 1363 391 1709 391 
Q 2188 391 2477 730 
Q 2766 1069 2766 1631 
L 2766 1759 
L 2194 1759 
z
M 3341 1997 
L 3341 0 
L 2766 0 
L 2766 531 
Q 2569 213 2275 61 
Q 1981 -91 1556 -91 
Q 1019 -91 701 211 
Q 384 513 384 1019 
Q 384 1609 779 1909 
Q 1175 2209 1959 2209 
L 2766 2209 
L 2766 2266 
Q 2766 2663 2505 2880 
Q 2244 3097 1772 3097 
Q 1472 3097 1187 3025 
Q 903 2953 641 2809 
L 641 3341 
Q 956 3463 1253 3523 
Q 1550 3584 1831 3584 
Q 2591 3584 2966 3190 
Q 3341 2797 3341 1997 
z
" transform="scale(0.015625)"/>
        <path id="DejaVuSans-6e" d="M 3513 2113 
L 3513 0 
L 2938 0 
L 2938 2094 
Q 2938 2591 2744 2837 
Q 2550 3084 2163 3084 
Q 1697 3084 1428 2787 
Q 1159 2491 1159 1978 
L 1159 0 
L 581 0 
L 581 3500 
L 1159 3500 
L 1159 2956 
Q 1366 3272 1645 3428 
Q 1925 3584 2291 3584 
Q 2894 3584 3203 3211 
Q 3513 2838 3513 2113 
z
" transform="scale(0.015625)"/>
       </defs>
       <use xlink:href="#DejaVuSans-4a"/>
       <use xlink:href="#DejaVuSans-61" x="29.492188"/>
       <use xlink:href="#DejaVuSans-6e" x="90.771484"/>
      </g>
      <!-- 2022 -->
      <g style="fill: #262626" transform="translate(457.522426 505.273812) scale(0.165 -0.165)">
       <defs>
        <path id="DejaVuSans-32" d="M 1228 531 
L 3431 531 
L 3431 0 
L 469 0 
L 469 531 
Q 828 903 1448 1529 
Q 2069 2156 2228 2338 
Q 2531 2678 2651 2914 
Q 2772 3150 2772 3378 
Q 2772 3750 2511 3984 
Q 2250 4219 1831 4219 
Q 1534 4219 1204 4116 
Q 875 4013 500 3803 
L 500 4441 
Q 881 4594 1212 4672 
Q 1544 4750 1819 4750 
Q 2544 4750 2975 4387 
Q 3406 4025 3406 3419 
Q 3406 3131 3298 2873 
Q 3191 2616 2906 2266 
Q 2828 2175 2409 1742 
Q 1991 1309 1228 531 
z
" transform="scale(0.015625)"/>
        <path id="DejaVuSans-30" d="M 2034 4250 
Q 1547 4250 1301 3770 
Q 1056 3291 1056 2328 
Q 1056 1369 1301 889 
Q 1547 409 2034 409 
Q 2525 409 2770 889 
Q 3016 1369 3016 2328 
Q 3016 3291 2770 3770 
Q 2525 4250 2034 4250 
z
M 2034 4750 
Q 2819 4750 3233 4129 
Q 3647 3509 3647 2328 
Q 3647 1150 3233 529 
Q 2819 -91 2034 -91 
Q 1250 -91 836 529 
Q 422 1150 422 2328 
Q 422 3509 836 4129 
Q 1250 4750 2034 4750 
z
" transform="scale(0.015625)"/>
       </defs>
       <use xlink:href="#DejaVuSans-32"/>
       <use xlink:href="#DejaVuSans-30" x="63.623047"/>
       <use xlink:href="#DejaVuSans-32" x="127.246094"/>
       <use xlink:href="#DejaVuSans-32" x="190.869141"/>
      </g>
     </g>
    </g>
    <g id="xtick_2">
     <g id="line2d_2">
      <defs>
       <path id="m28aa9261c9" d="M 0 0 
L 0 6 
" style="stroke: #262626; stroke-width: 1.5"/>
      </defs>
      <g>
       <use xlink:href="#m28aa9261c9" x="67.360781" y="461.76" style="fill: #262626; stroke: #262626; stroke-width: 1.5"/>
      </g>
     </g>
    </g>
    <g id="xtick_3">
     <g id="line2d_3">
      <g>
       <use xlink:href="#m28aa9261c9" x="108.476571" y="461.76" style="fill: #262626; stroke: #262626; stroke-width: 1.5"/>
      </g>
     </g>
     <g id="text_2">
      <!-- Apr -->
      <g style="fill: #262626" transform="translate(94.204071 483.697422) scale(0.165 -0.165)">
       <defs>
        <path id="DejaVuSans-41" d="M 2188 4044 
L 1331 1722 
L 3047 1722 
L 2188 4044 
z
M 1831 4666 
L 2547 4666 
L 4325 0 
L 3669 0 
L 3244 1197 
L 1141 1197 
L 716 0 
L 50 0 
L 1831 4666 
z
" transform="scale(0.015625)"/>
        <path id="DejaVuSans-70" d="M 1159 525 
L 1159 -1331 
L 581 -1331 
L 581 3500 
L 1159 3500 
L 1159 2969 
Q 1341 3281 1617 3432 
Q 1894 3584 2278 3584 
Q 2916 3584 3314 3078 
Q 3713 2572 3713 1747 
Q 3713 922 3314 415 
Q 2916 -91 2278 -91 
Q 1894 -91 1617 61 
Q 1341 213 1159 525 
z
M 3116 1747 
Q 3116 2381 2855 2742 
Q 2594 3103 2138 3103 
Q 1681 3103 1420 2742 
Q 1159 2381 1159 1747 
Q 1159 1113 1420 752 
Q 1681 391 2138 391 
Q 2594 391 2855 752 
Q 3116 1113 3116 1747 
z
" transform="scale(0.015625)"/>
        <path id="DejaVuSans-72" d="M 2631 2963 
Q 2534 3019 2420 3045 
Q 2306 3072 2169 3072 
Q 1681 3072 1420 2755 
Q 1159 2438 1159 1844 
L 1159 0 
L 581 0 
L 581 3500 
L 1159 3500 
L 1159 2956 
Q 1341 3275 1631 3429 
Q 1922 3584 2338 3584 
Q 2397 3584 2469 3576 
Q 2541 3569 2628 3553 
L 2631 2963 
z
" transform="scale(0.015625)"/>
       </defs>
       <use xlink:href="#DejaVuSans-41"/>
       <use xlink:href="#DejaVuSans-70" x="68.408203"/>
       <use xlink:href="#DejaVuSans-72" x="131.884766"/>
      </g>
     </g>
    </g>
    <g id="xtick_4">
     <g id="line2d_4">
      <g>
       <use xlink:href="#m28aa9261c9" x="149.59236" y="461.76" style="fill: #262626; stroke: #262626; stroke-width: 1.5"/>
      </g>
     </g>
    </g>
    <g id="xtick_5">
     <g id="line2d_5">
      <g>
       <use xlink:href="#m28aa9261c9" x="190.70815" y="461.76" style="fill: #262626; stroke: #262626; stroke-width: 1.5"/>
      </g>
     </g>
    </g>
    <g id="xtick_6">
     <g id="line2d_6">
      <g>
       <use xlink:href="#m28aa9261c9" x="231.823939" y="461.76" style="fill: #262626; stroke: #262626; stroke-width: 1.5"/>
      </g>
     </g>
     <g id="text_3">
      <!-- Jul -->
      <g style="fill: #262626" transform="translate(221.869799 483.697422) scale(0.165 -0.165)">
       <defs>
        <path id="DejaVuSans-75" d="M 544 1381 
L 544 3500 
L 1119 3500 
L 1119 1403 
Q 1119 906 1312 657 
Q 1506 409 1894 409 
Q 2359 409 2629 706 
Q 2900 1003 2900 1516 
L 2900 3500 
L 3475 3500 
L 3475 0 
L 2900 0 
L 2900 538 
Q 2691 219 2414 64 
Q 2138 -91 1772 -91 
Q 1169 -91 856 284 
Q 544 659 544 1381 
z
M 1991 3584 
L 1991 3584 
z
" transform="scale(0.015625)"/>
        <path id="DejaVuSans-6c" d="M 603 4863 
L 1178 4863 
L 1178 0 
L 603 0 
L 603 4863 
z
" transform="scale(0.015625)"/>
       </defs>
       <use xlink:href="#DejaVuSans-4a"/>
       <use xlink:href="#DejaVuSans-75" x="29.492188"/>
       <use xlink:href="#DejaVuSans-6c" x="92.871094"/>
      </g>
     </g>
    </g>
    <g id="xtick_7">
     <g id="line2d_7">
      <g>
       <use xlink:href="#m28aa9261c9" x="272.939729" y="461.76" style="fill: #262626; stroke: #262626; stroke-width: 1.5"/>
      </g>
     </g>
    </g>
    <g id="xtick_8">
     <g id="line2d_8">
      <g>
       <use xlink:href="#m28aa9261c9" x="314.055518" y="461.76" style="fill: #262626; stroke: #262626; stroke-width: 1.5"/>
      </g>
     </g>
    </g>
    <g id="xtick_9">
     <g id="line2d_9">
      <g>
       <use xlink:href="#m28aa9261c9" x="355.171308" y="461.76" style="fill: #262626; stroke: #262626; stroke-width: 1.5"/>
      </g>
     </g>
     <g id="text_4">
      <!-- Oct -->
      <g style="fill: #262626" transform="translate(340.906542 483.697422) scale(0.165 -0.165)">
       <defs>
        <path id="DejaVuSans-4f" d="M 2522 4238 
Q 1834 4238 1429 3725 
Q 1025 3213 1025 2328 
Q 1025 1447 1429 934 
Q 1834 422 2522 422 
Q 3209 422 3611 934 
Q 4013 1447 4013 2328 
Q 4013 3213 3611 3725 
Q 3209 4238 2522 4238 
z
M 2522 4750 
Q 3503 4750 4090 4092 
Q 4678 3434 4678 2328 
Q 4678 1225 4090 567 
Q 3503 -91 2522 -91 
Q 1538 -91 948 565 
Q 359 1222 359 2328 
Q 359 3434 948 4092 
Q 1538 4750 2522 4750 
z
" transform="scale(0.015625)"/>
        <path id="DejaVuSans-63" d="M 3122 3366 
L 3122 2828 
Q 2878 2963 2633 3030 
Q 2388 3097 2138 3097 
Q 1578 3097 1268 2742 
Q 959 2388 959 1747 
Q 959 1106 1268 751 
Q 1578 397 2138 397 
Q 2388 397 2633 464 
Q 2878 531 3122 666 
L 3122 134 
Q 2881 22 2623 -34 
Q 2366 -91 2075 -91 
Q 1284 -91 818 406 
Q 353 903 353 1747 
Q 353 2603 823 3093 
Q 1294 3584 2113 3584 
Q 2378 3584 2631 3529 
Q 2884 3475 3122 3366 
z
" transform="scale(0.015625)"/>
        <path id="DejaVuSans-74" d="M 1172 4494 
L 1172 3500 
L 2356 3500 
L 2356 3053 
L 1172 3053 
L 1172 1153 
Q 1172 725 1289 603 
Q 1406 481 1766 481 
L 2356 481 
L 2356 0 
L 1766 0 
Q 1100 0 847 248 
Q 594 497 594 1153 
L 594 3053 
L 172 3053 
L 172 3500 
L 594 3500 
L 594 4494 
L 1172 4494 
z
" transform="scale(0.015625)"/>
       </defs>
       <use xlink:href="#DejaVuSans-4f"/>
       <use xlink:href="#DejaVuSans-63" x="78.710938"/>
       <use xlink:href="#DejaVuSans-74" x="133.691406"/>
      </g>
     </g>
    </g>
    <g id="xtick_10">
     <g id="line2d_10">
      <g>
       <use xlink:href="#m28aa9261c9" x="396.287097" y="461.76" style="fill: #262626; stroke: #262626; stroke-width: 1.5"/>
      </g>
     </g>
    </g>
    <g id="xtick_11">
     <g id="line2d_11">
      <g>
       <use xlink:href="#m28aa9261c9" x="437.402887" y="461.76" style="fill: #262626; stroke: #262626; stroke-width: 1.5"/>
      </g>
     </g>
    </g>
    <g id="xtick_12">
     <g id="line2d_12">
      <g>
       <use xlink:href="#m28aa9261c9" x="519.634465" y="461.76" style="fill: #262626; stroke: #262626; stroke-width: 1.5"/>
      </g>
     </g>
    </g>
    <g id="xtick_13">
     <g id="line2d_13">
      <g>
       <use xlink:href="#m28aa9261c9" x="560.750255" y="461.76" style="fill: #262626; stroke: #262626; stroke-width: 1.5"/>
      </g>
     </g>
    </g>
    <g id="xtick_14">
     <g id="line2d_14">
      <g>
       <use xlink:href="#m28aa9261c9" x="601.866044" y="461.76" style="fill: #262626; stroke: #262626; stroke-width: 1.5"/>
      </g>
     </g>
     <g id="text_5">
      <!-- Apr -->
      <g style="fill: #262626" transform="translate(587.593544 483.697422) scale(0.165 -0.165)">
       <use xlink:href="#DejaVuSans-41"/>
       <use xlink:href="#DejaVuSans-70" x="68.408203"/>
       <use xlink:href="#DejaVuSans-72" x="131.884766"/>
      </g>
     </g>
    </g>
    <g id="xtick_15">
     <g id="line2d_15">
      <g>
       <use xlink:href="#m28aa9261c9" x="642.981834" y="461.76" style="fill: #262626; stroke: #262626; stroke-width: 1.5"/>
      </g>
     </g>
    </g>
    <g id="xtick_16">
     <g id="line2d_16">
      <g>
       <use xlink:href="#m28aa9261c9" x="684.097623" y="461.76" style="fill: #262626; stroke: #262626; stroke-width: 1.5"/>
      </g>
     </g>
    </g>
    <g id="xtick_17">
     <g id="line2d_17">
      <g>
       <use xlink:href="#m28aa9261c9" x="725.213413" y="461.76" style="fill: #262626; stroke: #262626; stroke-width: 1.5"/>
      </g>
     </g>
     <g id="text_6">
      <!-- Jul -->
      <g style="fill: #262626" transform="translate(715.259272 483.697422) scale(0.165 -0.165)">
       <use xlink:href="#DejaVuSans-4a"/>
       <use xlink:href="#DejaVuSans-75" x="29.492188"/>
       <use xlink:href="#DejaVuSans-6c" x="92.871094"/>
      </g>
     </g>
    </g>
    <g id="xtick_18">
     <g id="line2d_18">
      <g>
       <use xlink:href="#m28aa9261c9" x="766.329202" y="461.76" style="fill: #262626; stroke: #262626; stroke-width: 1.5"/>
      </g>
     </g>
    </g>
    <g id="xtick_19">
     <g id="line2d_19">
      <g>
       <use xlink:href="#m28aa9261c9" x="807.444992" y="461.76" style="fill: #262626; stroke: #262626; stroke-width: 1.5"/>
      </g>
     </g>
    </g>
    <g id="xtick_20">
     <g id="line2d_20">
      <g>
       <use xlink:href="#m28aa9261c9" x="848.560781" y="461.76" style="fill: #262626; stroke: #262626; stroke-width: 1.5"/>
      </g>
     </g>
     <g id="text_7">
      <!-- Oct -->
      <g style="fill: #262626" transform="translate(834.296016 483.697422) scale(0.165 -0.165)">
       <use xlink:href="#DejaVuSans-4f"/>
       <use xlink:href="#DejaVuSans-63" x="78.710938"/>
       <use xlink:href="#DejaVuSans-74" x="133.691406"/>
      </g>
     </g>
    </g>
    <g id="text_8">
     <!-- Month -->
     <g style="fill: #262626" transform="translate(429.752813 526.382484) scale(0.18 -0.18)">
      <defs>
       <path id="DejaVuSans-4d" d="M 628 4666 
L 1569 4666 
L 2759 1491 
L 3956 4666 
L 4897 4666 
L 4897 0 
L 4281 0 
L 4281 4097 
L 3078 897 
L 2444 897 
L 1241 4097 
L 1241 0 
L 628 0 
L 628 4666 
z
" transform="scale(0.015625)"/>
       <path id="DejaVuSans-6f" d="M 1959 3097 
Q 1497 3097 1228 2736 
Q 959 2375 959 1747 
Q 959 1119 1226 758 
Q 1494 397 1959 397 
Q 2419 397 2687 759 
Q 2956 1122 2956 1747 
Q 2956 2369 2687 2733 
Q 2419 3097 1959 3097 
z
M 1959 3584 
Q 2709 3584 3137 3096 
Q 3566 2609 3566 1747 
Q 3566 888 3137 398 
Q 2709 -91 1959 -91 
Q 1206 -91 779 398 
Q 353 888 353 1747 
Q 353 2609 779 3096 
Q 1206 3584 1959 3584 
z
" transform="scale(0.015625)"/>
       <path id="DejaVuSans-68" d="M 3513 2113 
L 3513 0 
L 2938 0 
L 2938 2094 
Q 2938 2591 2744 2837 
Q 2550 3084 2163 3084 
Q 1697 3084 1428 2787 
Q 1159 2491 1159 1978 
L 1159 0 
L 581 0 
L 581 4863 
L 1159 4863 
L 1159 2956 
Q 1366 3272 1645 3428 
Q 1925 3584 2291 3584 
Q 2894 3584 3203 3211 
Q 3513 2838 3513 2113 
z
" transform="scale(0.015625)"/>
      </defs>
      <use xlink:href="#DejaVuSans-4d"/>
      <use xlink:href="#DejaVuSans-6f" x="86.279297"/>
      <use xlink:href="#DejaVuSans-6e" x="147.460938"/>
      <use xlink:href="#DejaVuSans-74" x="210.839844"/>
      <use xlink:href="#DejaVuSans-68" x="250.048828"/>
     </g>
    </g>
   </g>
   <g id="matplotlib.axis_2">
    <g id="ytick_1">
     <g id="line2d_21">
      <defs>
       <path id="m7ddc609719" d="M 0 0 
L -9 0 
" style="stroke: #262626; stroke-width: 1.875"/>
      </defs>
      <g>
       <use xlink:href="#m7ddc609719" x="67.360781" y="461.76" style="fill: #262626; stroke: #262626; stroke-width: 1.875"/>
      </g>
     </g>
     <g id="text_9">
      <!-- 0.0 -->
      <g style="fill: #262626" transform="translate(28.620625 468.028711) scale(0.165 -0.165)">
       <defs>
        <path id="DejaVuSans-2e" d="M 684 794 
L 1344 794 
L 1344 0 
L 684 0 
L 684 794 
z
" transform="scale(0.015625)"/>
       </defs>
       <use xlink:href="#DejaVuSans-30"/>
       <use xlink:href="#DejaVuSans-2e" x="63.623047"/>
       <use xlink:href="#DejaVuSans-30" x="95.410156"/>
      </g>
     </g>
    </g>
    <g id="ytick_2">
     <g id="line2d_22">
      <g>
       <use xlink:href="#m7ddc609719" x="67.360781" y="374.784" style="fill: #262626; stroke: #262626; stroke-width: 1.875"/>
      </g>
     </g>
     <g id="text_10">
      <!-- 0.2 -->
      <g style="fill: #262626" transform="translate(28.620625 381.052711) scale(0.165 -0.165)">
       <use xlink:href="#DejaVuSans-30"/>
       <use xlink:href="#DejaVuSans-2e" x="63.623047"/>
       <use xlink:href="#DejaVuSans-32" x="95.410156"/>
      </g>
     </g>
    </g>
    <g id="ytick_3">
     <g id="line2d_23">
      <g>
       <use xlink:href="#m7ddc609719" x="67.360781" y="287.808" style="fill: #262626; stroke: #262626; stroke-width: 1.875"/>
      </g>
     </g>
     <g id="text_11">
      <!-- 0.4 -->
      <g style="fill: #262626" transform="translate(28.620625 294.076711) scale(0.165 -0.165)">
       <defs>
        <path id="DejaVuSans-34" d="M 2419 4116 
L 825 1625 
L 2419 1625 
L 2419 4116 
z
M 2253 4666 
L 3047 4666 
L 3047 1625 
L 3713 1625 
L 3713 1100 
L 3047 1100 
L 3047 0 
L 2419 0 
L 2419 1100 
L 313 1100 
L 313 1709 
L 2253 4666 
z
" transform="scale(0.015625)"/>
       </defs>
       <use xlink:href="#DejaVuSans-30"/>
       <use xlink:href="#DejaVuSans-2e" x="63.623047"/>
       <use xlink:href="#DejaVuSans-34" x="95.410156"/>
      </g>
     </g>
    </g>
    <g id="ytick_4">
     <g id="line2d_24">
      <g>
       <use xlink:href="#m7ddc609719" x="67.360781" y="200.832" style="fill: #262626; stroke: #262626; stroke-width: 1.875"/>
      </g>
     </g>
     <g id="text_12">
      <!-- 0.6 -->
      <g style="fill: #262626" transform="translate(28.620625 207.100711) scale(0.165 -0.165)">
       <defs>
        <path id="DejaVuSans-36" d="M 2113 2584 
Q 1688 2584 1439 2293 
Q 1191 2003 1191 1497 
Q 1191 994 1439 701 
Q 1688 409 2113 409 
Q 2538 409 2786 701 
Q 3034 994 3034 1497 
Q 3034 2003 2786 2293 
Q 2538 2584 2113 2584 
z
M 3366 4563 
L 3366 3988 
Q 3128 4100 2886 4159 
Q 2644 4219 2406 4219 
Q 1781 4219 1451 3797 
Q 1122 3375 1075 2522 
Q 1259 2794 1537 2939 
Q 1816 3084 2150 3084 
Q 2853 3084 3261 2657 
Q 3669 2231 3669 1497 
Q 3669 778 3244 343 
Q 2819 -91 2113 -91 
Q 1303 -91 875 529 
Q 447 1150 447 2328 
Q 447 3434 972 4092 
Q 1497 4750 2381 4750 
Q 2619 4750 2861 4703 
Q 3103 4656 3366 4563 
z
" transform="scale(0.015625)"/>
       </defs>
       <use xlink:href="#DejaVuSans-30"/>
       <use xlink:href="#DejaVuSans-2e" x="63.623047"/>
       <use xlink:href="#DejaVuSans-36" x="95.410156"/>
      </g>
     </g>
    </g>
    <g id="ytick_5">
     <g id="line2d_25">
      <g>
       <use xlink:href="#m7ddc609719" x="67.360781" y="113.856" style="fill: #262626; stroke: #262626; stroke-width: 1.875"/>
      </g>
     </g>
     <g id="text_13">
      <!-- 0.8 -->
      <g style="fill: #262626" transform="translate(28.620625 120.124711) scale(0.165 -0.165)">
       <defs>
        <path id="DejaVuSans-38" d="M 2034 2216 
Q 1584 2216 1326 1975 
Q 1069 1734 1069 1313 
Q 1069 891 1326 650 
Q 1584 409 2034 409 
Q 2484 409 2743 651 
Q 3003 894 3003 1313 
Q 3003 1734 2745 1975 
Q 2488 2216 2034 2216 
z
M 1403 2484 
Q 997 2584 770 2862 
Q 544 3141 544 3541 
Q 544 4100 942 4425 
Q 1341 4750 2034 4750 
Q 2731 4750 3128 4425 
Q 3525 4100 3525 3541 
Q 3525 3141 3298 2862 
Q 3072 2584 2669 2484 
Q 3125 2378 3379 2068 
Q 3634 1759 3634 1313 
Q 3634 634 3220 271 
Q 2806 -91 2034 -91 
Q 1263 -91 848 271 
Q 434 634 434 1313 
Q 434 1759 690 2068 
Q 947 2378 1403 2484 
z
M 1172 3481 
Q 1172 3119 1398 2916 
Q 1625 2713 2034 2713 
Q 2441 2713 2670 2916 
Q 2900 3119 2900 3481 
Q 2900 3844 2670 4047 
Q 2441 4250 2034 4250 
Q 1625 4250 1398 4047 
Q 1172 3844 1172 3481 
z
" transform="scale(0.015625)"/>
       </defs>
       <use xlink:href="#DejaVuSans-30"/>
       <use xlink:href="#DejaVuSans-2e" x="63.623047"/>
       <use xlink:href="#DejaVuSans-38" x="95.410156"/>
      </g>
     </g>
    </g>
    <g id="ytick_6">
     <g id="line2d_26">
      <g>
       <use xlink:href="#m7ddc609719" x="67.360781" y="26.88" style="fill: #262626; stroke: #262626; stroke-width: 1.875"/>
      </g>
     </g>
     <g id="text_14">
      <!-- 1.0 -->
      <g style="fill: #262626" transform="translate(28.620625 33.148711) scale(0.165 -0.165)">
       <defs>
        <path id="DejaVuSans-31" d="M 794 531 
L 1825 531 
L 1825 4091 
L 703 3866 
L 703 4441 
L 1819 4666 
L 2450 4666 
L 2450 531 
L 3481 531 
L 3481 0 
L 794 0 
L 794 531 
z
" transform="scale(0.015625)"/>
       </defs>
       <use xlink:href="#DejaVuSans-31"/>
       <use xlink:href="#DejaVuSans-2e" x="63.623047"/>
       <use xlink:href="#DejaVuSans-30" x="95.410156"/>
      </g>
     </g>
    </g>
    <g id="text_15">
     <!-- Normalized counts -->
     <g style="fill: #262626" transform="translate(20.877187 328.299844) rotate(-90) scale(0.18 -0.18)">
      <defs>
       <path id="DejaVuSans-4e" d="M 628 4666 
L 1478 4666 
L 3547 763 
L 3547 4666 
L 4159 4666 
L 4159 0 
L 3309 0 
L 1241 3903 
L 1241 0 
L 628 0 
L 628 4666 
z
" transform="scale(0.015625)"/>
       <path id="DejaVuSans-6d" d="M 3328 2828 
Q 3544 3216 3844 3400 
Q 4144 3584 4550 3584 
Q 5097 3584 5394 3201 
Q 5691 2819 5691 2113 
L 5691 0 
L 5113 0 
L 5113 2094 
Q 5113 2597 4934 2840 
Q 4756 3084 4391 3084 
Q 3944 3084 3684 2787 
Q 3425 2491 3425 1978 
L 3425 0 
L 2847 0 
L 2847 2094 
Q 2847 2600 2669 2842 
Q 2491 3084 2119 3084 
Q 1678 3084 1418 2786 
Q 1159 2488 1159 1978 
L 1159 0 
L 581 0 
L 581 3500 
L 1159 3500 
L 1159 2956 
Q 1356 3278 1631 3431 
Q 1906 3584 2284 3584 
Q 2666 3584 2933 3390 
Q 3200 3197 3328 2828 
z
" transform="scale(0.015625)"/>
       <path id="DejaVuSans-69" d="M 603 3500 
L 1178 3500 
L 1178 0 
L 603 0 
L 603 3500 
z
M 603 4863 
L 1178 4863 
L 1178 4134 
L 603 4134 
L 603 4863 
z
" transform="scale(0.015625)"/>
       <path id="DejaVuSans-7a" d="M 353 3500 
L 3084 3500 
L 3084 2975 
L 922 459 
L 3084 459 
L 3084 0 
L 275 0 
L 275 525 
L 2438 3041 
L 353 3041 
L 353 3500 
z
" transform="scale(0.015625)"/>
       <path id="DejaVuSans-65" d="M 3597 1894 
L 3597 1613 
L 953 1613 
Q 991 1019 1311 708 
Q 1631 397 2203 397 
Q 2534 397 2845 478 
Q 3156 559 3463 722 
L 3463 178 
Q 3153 47 2828 -22 
Q 2503 -91 2169 -91 
Q 1331 -91 842 396 
Q 353 884 353 1716 
Q 353 2575 817 3079 
Q 1281 3584 2069 3584 
Q 2775 3584 3186 3129 
Q 3597 2675 3597 1894 
z
M 3022 2063 
Q 3016 2534 2758 2815 
Q 2500 3097 2075 3097 
Q 1594 3097 1305 2825 
Q 1016 2553 972 2059 
L 3022 2063 
z
" transform="scale(0.015625)"/>
       <path id="DejaVuSans-64" d="M 2906 2969 
L 2906 4863 
L 3481 4863 
L 3481 0 
L 2906 0 
L 2906 525 
Q 2725 213 2448 61 
Q 2172 -91 1784 -91 
Q 1150 -91 751 415 
Q 353 922 353 1747 
Q 353 2572 751 3078 
Q 1150 3584 1784 3584 
Q 2172 3584 2448 3432 
Q 2725 3281 2906 2969 
z
M 947 1747 
Q 947 1113 1208 752 
Q 1469 391 1925 391 
Q 2381 391 2643 752 
Q 2906 1113 2906 1747 
Q 2906 2381 2643 2742 
Q 2381 3103 1925 3103 
Q 1469 3103 1208 2742 
Q 947 2381 947 1747 
z
" transform="scale(0.015625)"/>
       <path id="DejaVuSans-20" transform="scale(0.015625)"/>
       <path id="DejaVuSans-73" d="M 2834 3397 
L 2834 2853 
Q 2591 2978 2328 3040 
Q 2066 3103 1784 3103 
Q 1356 3103 1142 2972 
Q 928 2841 928 2578 
Q 928 2378 1081 2264 
Q 1234 2150 1697 2047 
L 1894 2003 
Q 2506 1872 2764 1633 
Q 3022 1394 3022 966 
Q 3022 478 2636 193 
Q 2250 -91 1575 -91 
Q 1294 -91 989 -36 
Q 684 19 347 128 
L 347 722 
Q 666 556 975 473 
Q 1284 391 1588 391 
Q 1994 391 2212 530 
Q 2431 669 2431 922 
Q 2431 1156 2273 1281 
Q 2116 1406 1581 1522 
L 1381 1569 
Q 847 1681 609 1914 
Q 372 2147 372 2553 
Q 372 3047 722 3315 
Q 1072 3584 1716 3584 
Q 2034 3584 2315 3537 
Q 2597 3491 2834 3397 
z
" transform="scale(0.015625)"/>
      </defs>
      <use xlink:href="#DejaVuSans-4e"/>
      <use xlink:href="#DejaVuSans-6f" x="74.804688"/>
      <use xlink:href="#DejaVuSans-72" x="135.986328"/>
      <use xlink:href="#DejaVuSans-6d" x="175.349609"/>
      <use xlink:href="#DejaVuSans-61" x="272.761719"/>
      <use xlink:href="#DejaVuSans-6c" x="334.041016"/>
      <use xlink:href="#DejaVuSans-69" x="361.824219"/>
      <use xlink:href="#DejaVuSans-7a" x="389.607422"/>
      <use xlink:href="#DejaVuSans-65" x="442.097656"/>
      <use xlink:href="#DejaVuSans-64" x="503.621094"/>
      <use xlink:href="#DejaVuSans-20" x="567.097656"/>
      <use xlink:href="#DejaVuSans-63" x="598.884766"/>
      <use xlink:href="#DejaVuSans-6f" x="653.865234"/>
      <use xlink:href="#DejaVuSans-75" x="715.046875"/>
      <use xlink:href="#DejaVuSans-6e" x="778.425781"/>
      <use xlink:href="#DejaVuSans-74" x="841.804688"/>
      <use xlink:href="#DejaVuSans-73" x="881.013672"/>
     </g>
    </g>
   </g>
   <g id="PolyCollection_1">
    <defs>
     <path id="m3cbd4c8fe5" d="M 67.360781 -79.414417 
L 67.360781 -75.565922 
L 108.476571 -75.565922 
L 149.59236 -75.565922 
L 190.70815 -75.565922 
L 231.823939 -75.565922 
L 272.939729 -75.565922 
L 314.055518 -75.565922 
L 355.171308 -75.565922 
L 396.287097 -75.565922 
L 437.402887 -75.565922 
L 478.518676 -75.565922 
L 519.634465 -75.565922 
L 560.750255 -75.565922 
L 601.866044 -75.565922 
L 642.981834 -75.565922 
L 684.097623 -75.565922 
L 725.213413 -75.565922 
L 766.329202 -75.565922 
L 807.444992 -75.565922 
L 848.560781 -75.565922 
L 848.560781 -75.565922 
L 848.560781 -75.565922 
L 807.444992 -94.473748 
L 766.329202 -75.565922 
L 725.213413 -111.805922 
L 684.097623 -75.565922 
L 642.981834 -86.437922 
L 601.866044 -86.437922 
L 560.750255 -83.928999 
L 519.634465 -83.063853 
L 478.518676 -75.565922 
L 437.402887 -103.17735 
L 396.287097 -75.565922 
L 355.171308 -80.397922 
L 314.055518 -80.682157 
L 272.939729 -75.565922 
L 231.823939 -81.605922 
L 190.70815 -84.351376 
L 149.59236 -75.565922 
L 108.476571 -83.262913 
L 67.360781 -79.414417 
z
" style="stroke: #8dd3c7; stroke-width: 1.5"/>
    </defs>
    <g clip-path="url(#p02d22e7a21)">
     <use xlink:href="#m3cbd4c8fe5" x="0" y="537.325922" style="fill: #8dd3c7; stroke: #8dd3c7; stroke-width: 1.5"/>
    </g>
   </g>
   <g id="PolyCollection_2">
    <defs>
     <path id="m298a103649" d="M 67.360781 -90.959904 
L 67.360781 -79.414417 
L 108.476571 -83.262913 
L 149.59236 -75.565922 
L 190.70815 -84.351376 
L 231.823939 -81.605922 
L 272.939729 -75.565922 
L 314.055518 -80.682157 
L 355.171308 -80.397922 
L 396.287097 -75.565922 
L 437.402887 -103.17735 
L 478.518676 -75.565922 
L 519.634465 -83.063853 
L 560.750255 -83.928999 
L 601.866044 -86.437922 
L 642.981834 -86.437922 
L 684.097623 -75.565922 
L 725.213413 -111.805922 
L 766.329202 -75.565922 
L 807.444992 -94.473748 
L 848.560781 -75.565922 
L 848.560781 -84.625922 
L 848.560781 -84.625922 
L 807.444992 -132.2894 
L 766.329202 -90.561784 
L 725.213413 -111.805922 
L 684.097623 -75.565922 
L 642.981834 -86.437922 
L 601.866044 -86.437922 
L 560.750255 -92.292076 
L 519.634465 -90.561784 
L 478.518676 -81.778493 
L 437.402887 -103.17735 
L 396.287097 -81.778493 
L 355.171308 -90.061922 
L 314.055518 -85.798392 
L 272.939729 -89.594309 
L 231.823939 -87.645922 
L 190.70815 -88.744104 
L 149.59236 -84.010194 
L 108.476571 -87.111409 
L 67.360781 -90.959904 
z
" style="stroke: #ffffb3; stroke-width: 1.5"/>
    </defs>
    <g clip-path="url(#p02d22e7a21)">
     <use xlink:href="#m298a103649" x="0" y="537.325922" style="fill: #ffffb3; stroke: #ffffb3; stroke-width: 1.5"/>
    </g>
   </g>
   <g id="PolyCollection_3">
    <defs>
     <path id="m1bd2ba9e2f" d="M 67.360781 -90.959904 
L 67.360781 -90.959904 
L 108.476571 -87.111409 
L 149.59236 -84.010194 
L 190.70815 -88.744104 
L 231.823939 -87.645922 
L 272.939729 -89.594309 
L 314.055518 -85.798392 
L 355.171308 -90.061922 
L 396.287097 -81.778493 
L 437.402887 -103.17735 
L 478.518676 -81.778493 
L 519.634465 -90.561784 
L 560.750255 -92.292076 
L 601.866044 -86.437922 
L 642.981834 -86.437922 
L 684.097623 -75.565922 
L 725.213413 -111.805922 
L 766.329202 -90.561784 
L 807.444992 -132.2894 
L 848.560781 -84.625922 
L 848.560781 -84.625922 
L 848.560781 -84.625922 
L 807.444992 -132.2894 
L 766.329202 -105.557646 
L 725.213413 -111.805922 
L 684.097623 -86.172751 
L 642.981834 -86.437922 
L 601.866044 -86.437922 
L 560.750255 -100.655153 
L 519.634465 -98.059715 
L 478.518676 -87.991065 
L 437.402887 -110.080208 
L 396.287097 -100.416208 
L 355.171308 -94.893922 
L 314.055518 -90.914628 
L 272.939729 -89.594309 
L 231.823939 -87.645922 
L 190.70815 -97.529558 
L 149.59236 -88.23233 
L 108.476571 -90.959904 
L 67.360781 -90.959904 
z
" style="stroke: #bebada; stroke-width: 1.5"/>
    </defs>
    <g clip-path="url(#p02d22e7a21)">
     <use xlink:href="#m1bd2ba9e2f" x="0" y="537.325922" style="fill: #bebada; stroke: #bebada; stroke-width: 1.5"/>
    </g>
   </g>
   <g id="PolyCollection_4">
    <defs>
     <path id="me8695fa35b" d="M 67.360781 -90.959904 
L 67.360781 -90.959904 
L 108.476571 -90.959904 
L 149.59236 -88.23233 
L 190.70815 -97.529558 
L 231.823939 -87.645922 
L 272.939729 -89.594309 
L 314.055518 -90.914628 
L 355.171308 -94.893922 
L 396.287097 -100.416208 
L 437.402887 -110.080208 
L 478.518676 -87.991065 
L 519.634465 -98.059715 
L 560.750255 -100.655153 
L 601.866044 -86.437922 
L 642.981834 -86.437922 
L 684.097623 -86.172751 
L 725.213413 -111.805922 
L 766.329202 -105.557646 
L 807.444992 -132.2894 
L 848.560781 -84.625922 
L 848.560781 -93.685922 
L 848.560781 -93.685922 
L 807.444992 -132.2894 
L 766.329202 -105.557646 
L 725.213413 -111.805922 
L 684.097623 -86.172751 
L 642.981834 -86.437922 
L 601.866044 -86.437922 
L 560.750255 -100.655153 
L 519.634465 -105.557646 
L 478.518676 -87.991065 
L 437.402887 -110.080208 
L 396.287097 -100.416208 
L 355.171308 -114.221922 
L 314.055518 -96.030863 
L 272.939729 -94.270438 
L 231.823939 -87.645922 
L 190.70815 -101.922286 
L 149.59236 -88.23233 
L 108.476571 -94.8084 
L 67.360781 -90.959904 
z
" style="stroke: #fb8072; stroke-width: 1.5"/>
    </defs>
    <g clip-path="url(#p02d22e7a21)">
     <use xlink:href="#me8695fa35b" x="0" y="537.325922" style="fill: #fb8072; stroke: #fb8072; stroke-width: 1.5"/>
    </g>
   </g>
   <g id="PolyCollection_5">
    <defs>
     <path id="m906616d737" d="M 67.360781 -114.050878 
L 67.360781 -90.959904 
L 108.476571 -94.8084 
L 149.59236 -88.23233 
L 190.70815 -101.922286 
L 231.823939 -87.645922 
L 272.939729 -94.270438 
L 314.055518 -96.030863 
L 355.171308 -114.221922 
L 396.287097 -100.416208 
L 437.402887 -110.080208 
L 478.518676 -87.991065 
L 519.634465 -105.557646 
L 560.750255 -100.655153 
L 601.866044 -86.437922 
L 642.981834 -86.437922 
L 684.097623 -86.172751 
L 725.213413 -111.805922 
L 766.329202 -105.557646 
L 807.444992 -132.2894 
L 848.560781 -93.685922 
L 848.560781 -116.335922 
L 848.560781 -116.335922 
L 807.444992 -170.105052 
L 766.329202 -105.557646 
L 725.213413 -111.805922 
L 684.097623 -96.77958 
L 642.981834 -108.181922 
L 601.866044 -129.925922 
L 560.750255 -117.381306 
L 519.634465 -120.553508 
L 478.518676 -112.84135 
L 437.402887 -123.885922 
L 396.287097 -119.053922 
L 355.171308 -128.717922 
L 314.055518 -121.61204 
L 272.939729 -117.651083 
L 231.823939 -111.805922 
L 190.70815 -110.70774 
L 149.59236 -100.898737 
L 108.476571 -114.050878 
L 67.360781 -114.050878 
z
" style="stroke: #80b1d3; stroke-width: 1.5"/>
    </defs>
    <g clip-path="url(#p02d22e7a21)">
     <use xlink:href="#m906616d737" x="0" y="537.325922" style="fill: #80b1d3; stroke: #80b1d3; stroke-width: 1.5"/>
    </g>
   </g>
   <g id="PolyCollection_6">
    <defs>
     <path id="m296e5369b6" d="M 67.360781 -117.899373 
L 67.360781 -114.050878 
L 108.476571 -114.050878 
L 149.59236 -100.898737 
L 190.70815 -110.70774 
L 231.823939 -111.805922 
L 272.939729 -117.651083 
L 314.055518 -121.61204 
L 355.171308 -128.717922 
L 396.287097 -119.053922 
L 437.402887 -123.885922 
L 478.518676 -112.84135 
L 519.634465 -120.553508 
L 560.750255 -117.381306 
L 601.866044 -129.925922 
L 642.981834 -108.181922 
L 684.097623 -96.77958 
L 725.213413 -111.805922 
L 766.329202 -105.557646 
L 807.444992 -170.105052 
L 848.560781 -116.335922 
L 848.560781 -116.335922 
L 848.560781 -116.335922 
L 807.444992 -189.012878 
L 766.329202 -105.557646 
L 725.213413 -111.805922 
L 684.097623 -96.77958 
L 642.981834 -108.181922 
L 601.866044 -129.925922 
L 560.750255 -117.381306 
L 519.634465 -128.051439 
L 478.518676 -112.84135 
L 437.402887 -123.885922 
L 396.287097 -119.053922 
L 355.171308 -143.213922 
L 314.055518 -126.728275 
L 272.939729 -127.003341 
L 231.823939 -117.845922 
L 190.70815 -115.100467 
L 149.59236 -105.120873 
L 108.476571 -121.747869 
L 67.360781 -117.899373 
z
" style="stroke: #fdb462; stroke-width: 1.5"/>
    </defs>
    <g clip-path="url(#p02d22e7a21)">
     <use xlink:href="#m296e5369b6" x="0" y="537.325922" style="fill: #fdb462; stroke: #fdb462; stroke-width: 1.5"/>
    </g>
   </g>
   <g id="PolyCollection_7">
    <defs>
     <path id="mb541ccc146" d="M 67.360781 -121.747869 
L 67.360781 -117.899373 
L 108.476571 -121.747869 
L 149.59236 -105.120873 
L 190.70815 -115.100467 
L 231.823939 -117.845922 
L 272.939729 -127.003341 
L 314.055518 -126.728275 
L 355.171308 -143.213922 
L 396.287097 -119.053922 
L 437.402887 -123.885922 
L 478.518676 -112.84135 
L 519.634465 -128.051439 
L 560.750255 -117.381306 
L 601.866044 -129.925922 
L 642.981834 -108.181922 
L 684.097623 -96.77958 
L 725.213413 -111.805922 
L 766.329202 -105.557646 
L 807.444992 -189.012878 
L 848.560781 -116.335922 
L 848.560781 -129.925922 
L 848.560781 -129.925922 
L 807.444992 -207.920704 
L 766.329202 -120.553508 
L 725.213413 -111.805922 
L 684.097623 -107.38641 
L 642.981834 -108.181922 
L 601.866044 -140.797922 
L 560.750255 -117.381306 
L 519.634465 -128.051439 
L 478.518676 -119.053922 
L 437.402887 -123.885922 
L 396.287097 -119.053922 
L 355.171308 -143.213922 
L 314.055518 -142.076981 
L 272.939729 -131.67947 
L 231.823939 -123.885922 
L 190.70815 -115.100467 
L 149.59236 -109.343009 
L 108.476571 -129.44486 
L 67.360781 -121.747869 
z
" style="stroke: #b3de69; stroke-width: 1.5"/>
    </defs>
    <g clip-path="url(#p02d22e7a21)">
     <use xlink:href="#mb541ccc146" x="0" y="537.325922" style="fill: #b3de69; stroke: #b3de69; stroke-width: 1.5"/>
    </g>
   </g>
   <g id="PolyCollection_8">
    <defs>
     <path id="me29e3509aa" d="M 67.360781 -129.44486 
L 67.360781 -121.747869 
L 108.476571 -129.44486 
L 149.59236 -109.343009 
L 190.70815 -115.100467 
L 231.823939 -123.885922 
L 272.939729 -131.67947 
L 314.055518 -142.076981 
L 355.171308 -143.213922 
L 396.287097 -119.053922 
L 437.402887 -123.885922 
L 478.518676 -119.053922 
L 519.634465 -128.051439 
L 560.750255 -117.381306 
L 601.866044 -140.797922 
L 642.981834 -108.181922 
L 684.097623 -107.38641 
L 725.213413 -111.805922 
L 766.329202 -120.553508 
L 807.444992 -207.920704 
L 848.560781 -129.925922 
L 848.560781 -134.455922 
L 848.560781 -134.455922 
L 807.444992 -207.920704 
L 766.329202 -120.553508 
L 725.213413 -111.805922 
L 684.097623 -128.600068 
L 642.981834 -129.925922 
L 601.866044 -151.669922 
L 560.750255 -117.381306 
L 519.634465 -128.051439 
L 478.518676 -125.266493 
L 437.402887 -123.885922 
L 396.287097 -119.053922 
L 355.171308 -148.045922 
L 314.055518 -152.309451 
L 272.939729 -141.031728 
L 231.823939 -123.885922 
L 190.70815 -128.278649 
L 149.59236 -109.343009 
L 108.476571 -129.44486 
L 67.360781 -129.44486 
z
" style="stroke: #fccde5; stroke-width: 1.5"/>
    </defs>
    <g clip-path="url(#p02d22e7a21)">
     <use xlink:href="#me29e3509aa" x="0" y="537.325922" style="fill: #fccde5; stroke: #fccde5; stroke-width: 1.5"/>
    </g>
   </g>
   <g id="PolyCollection_9">
    <defs>
     <path id="m6f3cebf358" d="M 67.360781 -129.44486 
L 67.360781 -129.44486 
L 108.476571 -129.44486 
L 149.59236 -109.343009 
L 190.70815 -128.278649 
L 231.823939 -123.885922 
L 272.939729 -141.031728 
L 314.055518 -152.309451 
L 355.171308 -148.045922 
L 396.287097 -119.053922 
L 437.402887 -123.885922 
L 478.518676 -125.266493 
L 519.634465 -128.051439 
L 560.750255 -117.381306 
L 601.866044 -151.669922 
L 642.981834 -129.925922 
L 684.097623 -128.600068 
L 725.213413 -111.805922 
L 766.329202 -120.553508 
L 807.444992 -207.920704 
L 848.560781 -134.455922 
L 848.560781 -148.045922 
L 848.560781 -148.045922 
L 807.444992 -207.920704 
L 766.329202 -120.553508 
L 725.213413 -148.045922 
L 684.097623 -128.600068 
L 642.981834 -129.925922 
L 601.866044 -151.669922 
L 560.750255 -117.381306 
L 519.634465 -128.051439 
L 478.518676 -125.266493 
L 437.402887 -123.885922 
L 396.287097 -125.266493 
L 355.171308 -152.877922 
L 314.055518 -152.309451 
L 272.939729 -141.031728 
L 231.823939 -135.965922 
L 190.70815 -137.064104 
L 149.59236 -109.343009 
L 108.476571 -133.293356 
L 67.360781 -129.44486 
z
" style="stroke: #d9d9d9; stroke-width: 1.5"/>
    </defs>
    <g clip-path="url(#p02d22e7a21)">
     <use xlink:href="#m6f3cebf358" x="0" y="537.325922" style="fill: #d9d9d9; stroke: #d9d9d9; stroke-width: 1.5"/>
    </g>
   </g>
   <g id="PolyCollection_10">
    <defs>
     <path id="mb1da0f3bb3" d="M 67.360781 -133.293356 
L 67.360781 -129.44486 
L 108.476571 -133.293356 
L 149.59236 -109.343009 
L 190.70815 -137.064104 
L 231.823939 -135.965922 
L 272.939729 -141.031728 
L 314.055518 -152.309451 
L 355.171308 -152.877922 
L 396.287097 -125.266493 
L 437.402887 -123.885922 
L 478.518676 -125.266493 
L 519.634465 -128.051439 
L 560.750255 -117.381306 
L 601.866044 -151.669922 
L 642.981834 -129.925922 
L 684.097623 -128.600068 
L 725.213413 -148.045922 
L 766.329202 -120.553508 
L 807.444992 -207.920704 
L 848.560781 -148.045922 
L 848.560781 -157.105922 
L 848.560781 -157.105922 
L 807.444992 -207.920704 
L 766.329202 -135.54937 
L 725.213413 -148.045922 
L 684.097623 -128.600068 
L 642.981834 -129.925922 
L 601.866044 -151.669922 
L 560.750255 -125.744383 
L 519.634465 -135.54937 
L 478.518676 -125.266493 
L 437.402887 -130.788779 
L 396.287097 -125.266493 
L 355.171308 -162.541922 
L 314.055518 -152.309451 
L 272.939729 -155.060115 
L 231.823939 -135.965922 
L 190.70815 -145.849558 
L 149.59236 -109.343009 
L 108.476571 -133.293356 
L 67.360781 -133.293356 
z
" style="stroke: #bc80bd; stroke-width: 1.5"/>
    </defs>
    <g clip-path="url(#p02d22e7a21)">
     <use xlink:href="#mb1da0f3bb3" x="0" y="537.325922" style="fill: #bc80bd; stroke: #bc80bd; stroke-width: 1.5"/>
    </g>
   </g>
   <g id="PolyCollection_11">
    <defs>
     <path id="m902201319e" d="M 67.360781 -167.929816 
L 67.360781 -133.293356 
L 108.476571 -133.293356 
L 149.59236 -109.343009 
L 190.70815 -145.849558 
L 231.823939 -135.965922 
L 272.939729 -155.060115 
L 314.055518 -152.309451 
L 355.171308 -162.541922 
L 396.287097 -125.266493 
L 437.402887 -130.788779 
L 478.518676 -125.266493 
L 519.634465 -135.54937 
L 560.750255 -125.744383 
L 601.866044 -151.669922 
L 642.981834 -129.925922 
L 684.097623 -128.600068 
L 725.213413 -148.045922 
L 766.329202 -135.54937 
L 807.444992 -207.920704 
L 848.560781 -157.105922 
L 848.560781 -166.165922 
L 848.560781 -166.165922 
L 807.444992 -226.828531 
L 766.329202 -150.545232 
L 725.213413 -148.045922 
L 684.097623 -171.027385 
L 642.981834 -162.541922 
L 601.866044 -151.669922 
L 560.750255 -167.559768 
L 519.634465 -158.043163 
L 478.518676 -156.32935 
L 437.402887 -144.594493 
L 396.287097 -137.691636 
L 355.171308 -177.037922 
L 314.055518 -183.006863 
L 272.939729 -173.764632 
L 231.823939 -160.125922 
L 190.70815 -167.813195 
L 149.59236 -138.897961 
L 108.476571 -160.232825 
L 67.360781 -167.929816 
z
" style="stroke: #ccebc5; stroke-width: 1.5"/>
    </defs>
    <g clip-path="url(#p02d22e7a21)">
     <use xlink:href="#m902201319e" x="0" y="537.325922" style="fill: #ccebc5; stroke: #ccebc5; stroke-width: 1.5"/>
    </g>
   </g>
   <g id="PolyCollection_12">
    <defs>
     <path id="m26d42d70b4" d="M 67.360781 -179.475302 
L 67.360781 -167.929816 
L 108.476571 -160.232825 
L 149.59236 -138.897961 
L 190.70815 -167.813195 
L 231.823939 -160.125922 
L 272.939729 -173.764632 
L 314.055518 -183.006863 
L 355.171308 -177.037922 
L 396.287097 -137.691636 
L 437.402887 -144.594493 
L 478.518676 -156.32935 
L 519.634465 -158.043163 
L 560.750255 -167.559768 
L 601.866044 -151.669922 
L 642.981834 -162.541922 
L 684.097623 -171.027385 
L 725.213413 -148.045922 
L 766.329202 -150.545232 
L 807.444992 -226.828531 
L 848.560781 -166.165922 
L 848.560781 -179.755922 
L 848.560781 -179.755922 
L 807.444992 -226.828531 
L 766.329202 -195.532818 
L 725.213413 -184.285922 
L 684.097623 -171.027385 
L 642.981834 -173.413922 
L 601.866044 -151.669922 
L 560.750255 -167.559768 
L 519.634465 -173.039025 
L 478.518676 -174.967065 
L 437.402887 -158.400208 
L 396.287097 -150.116779 
L 355.171308 -181.869922 
L 314.055518 -198.355569 
L 272.939729 -178.440761 
L 231.823939 -178.245922 
L 190.70815 -167.813195 
L 149.59236 -147.342233 
L 108.476571 -171.778311 
L 67.360781 -179.475302 
z
" style="stroke: #ffed6f; stroke-width: 1.5"/>
    </defs>
    <g clip-path="url(#p02d22e7a21)">
     <use xlink:href="#m26d42d70b4" x="0" y="537.325922" style="fill: #ffed6f; stroke: #ffed6f; stroke-width: 1.5"/>
    </g>
   </g>
   <g id="PolyCollection_13">
    <defs>
     <path id="m0acbeb43a5" d="M 67.360781 -183.323798 
L 67.360781 -179.475302 
L 108.476571 -171.778311 
L 149.59236 -147.342233 
L 190.70815 -167.813195 
L 231.823939 -178.245922 
L 272.939729 -178.440761 
L 314.055518 -198.355569 
L 355.171308 -181.869922 
L 396.287097 -150.116779 
L 437.402887 -158.400208 
L 478.518676 -174.967065 
L 519.634465 -173.039025 
L 560.750255 -167.559768 
L 601.866044 -151.669922 
L 642.981834 -173.413922 
L 684.097623 -171.027385 
L 725.213413 -184.285922 
L 766.329202 -195.532818 
L 807.444992 -226.828531 
L 848.560781 -179.755922 
L 848.560781 -184.285922 
L 848.560781 -184.285922 
L 807.444992 -226.828531 
L 766.329202 -210.52868 
L 725.213413 -184.285922 
L 684.097623 -171.027385 
L 642.981834 -173.413922 
L 601.866044 -151.669922 
L 560.750255 -167.559768 
L 519.634465 -188.034887 
L 478.518676 -174.967065 
L 437.402887 -158.400208 
L 396.287097 -150.116779 
L 355.171308 -186.701922 
L 314.055518 -198.355569 
L 272.939729 -192.469148 
L 231.823939 -184.285922 
L 190.70815 -172.205922 
L 149.59236 -147.342233 
L 108.476571 -171.778311 
L 67.360781 -183.323798 
z
" style="stroke: #8dd3c7; stroke-width: 1.5"/>
    </defs>
    <g clip-path="url(#p02d22e7a21)">
     <use xlink:href="#m0acbeb43a5" x="0" y="537.325922" style="fill: #8dd3c7; stroke: #8dd3c7; stroke-width: 1.5"/>
    </g>
   </g>
   <g id="PolyCollection_14">
    <defs>
     <path id="me854d324a5" d="M 67.360781 -191.020789 
L 67.360781 -183.323798 
L 108.476571 -171.778311 
L 149.59236 -147.342233 
L 190.70815 -172.205922 
L 231.823939 -184.285922 
L 272.939729 -192.469148 
L 314.055518 -198.355569 
L 355.171308 -186.701922 
L 396.287097 -150.116779 
L 437.402887 -158.400208 
L 478.518676 -174.967065 
L 519.634465 -188.034887 
L 560.750255 -167.559768 
L 601.866044 -151.669922 
L 642.981834 -173.413922 
L 684.097623 -171.027385 
L 725.213413 -184.285922 
L 766.329202 -210.52868 
L 807.444992 -226.828531 
L 848.560781 -184.285922 
L 848.560781 -188.815922 
L 848.560781 -188.815922 
L 807.444992 -226.828531 
L 766.329202 -210.52868 
L 725.213413 -184.285922 
L 684.097623 -171.027385 
L 642.981834 -173.413922 
L 601.866044 -162.541922 
L 560.750255 -184.285922 
L 519.634465 -188.034887 
L 478.518676 -174.967065 
L 437.402887 -158.400208 
L 396.287097 -150.116779 
L 355.171308 -186.701922 
L 314.055518 -208.58804 
L 272.939729 -197.145277 
L 231.823939 -184.285922 
L 190.70815 -176.598649 
L 149.59236 -147.342233 
L 108.476571 -171.778311 
L 67.360781 -191.020789 
z
" style="stroke: #ffffb3; stroke-width: 1.5"/>
    </defs>
    <g clip-path="url(#p02d22e7a21)">
     <use xlink:href="#me854d324a5" x="0" y="537.325922" style="fill: #ffffb3; stroke: #ffffb3; stroke-width: 1.5"/>
    </g>
   </g>
   <g id="PolyCollection_15">
    <defs>
     <path id="m9d8461c7a9" d="M 67.360781 -510.445922 
L 67.360781 -191.020789 
L 108.476571 -171.778311 
L 149.59236 -147.342233 
L 190.70815 -176.598649 
L 231.823939 -184.285922 
L 272.939729 -197.145277 
L 314.055518 -208.58804 
L 355.171308 -186.701922 
L 396.287097 -150.116779 
L 437.402887 -158.400208 
L 478.518676 -174.967065 
L 519.634465 -188.034887 
L 560.750255 -184.285922 
L 601.866044 -162.541922 
L 642.981834 -173.413922 
L 684.097623 -171.027385 
L 725.213413 -184.285922 
L 766.329202 -210.52868 
L 807.444992 -226.828531 
L 848.560781 -188.815922 
L 848.560781 -510.445922 
L 848.560781 -510.445922 
L 807.444992 -510.445922 
L 766.329202 -510.445922 
L 725.213413 -510.445922 
L 684.097623 -510.445922 
L 642.981834 -510.445922 
L 601.866044 -510.445922 
L 560.750255 -510.445922 
L 519.634465 -510.445922 
L 478.518676 -510.445922 
L 437.402887 -510.445922 
L 396.287097 -510.445922 
L 355.171308 -510.445922 
L 314.055518 -510.445922 
L 272.939729 -510.445922 
L 231.823939 -510.445922 
L 190.70815 -510.445922 
L 149.59236 -510.445922 
L 108.476571 -510.445922 
L 67.360781 -510.445922 
z
" style="stroke: #e6daa6; stroke-width: 1.5"/>
    </defs>
    <g clip-path="url(#p02d22e7a21)">
     <use xlink:href="#m9d8461c7a9" x="0" y="537.325922" style="fill: #e6daa6; stroke: #e6daa6; stroke-width: 1.5"/>
    </g>
   </g>
   <g id="line2d_27">
    <path d="M 67.360781 457.911504 
L 108.476571 454.063009 
L 149.59236 461.76 
L 190.70815 452.974545 
L 231.823939 455.72 
L 272.939729 461.76 
L 314.055518 456.643765 
L 355.171308 456.928 
L 396.287097 461.76 
L 437.402887 434.148571 
L 478.518676 461.76 
L 519.634465 454.262069 
L 560.750255 453.396923 
L 601.866044 450.888 
L 642.981834 450.888 
L 684.097623 461.76 
L 725.213413 425.52 
L 766.329202 461.76 
L 807.444992 442.852174 
L 848.560781 461.76 
" clip-path="url(#p02d22e7a21)" style="fill: none; stroke: #8dd3c7; stroke-width: 2.25; stroke-linecap: round"/>
   </g>
   <g id="line2d_28">
    <path d="M 67.360781 446.366018 
L 108.476571 450.214513 
L 149.59236 453.315728 
L 190.70815 448.581818 
L 231.823939 449.68 
L 272.939729 447.731613 
L 314.055518 451.527529 
L 355.171308 447.264 
L 396.287097 455.547429 
L 437.402887 434.148571 
L 478.518676 455.547429 
L 519.634465 446.764138 
L 560.750255 445.033846 
L 601.866044 450.888 
L 642.981834 450.888 
L 684.097623 461.76 
L 725.213413 425.52 
L 766.329202 446.764138 
L 807.444992 405.036522 
L 848.560781 452.7 
" clip-path="url(#p02d22e7a21)" style="fill: none; stroke: #ffffb3; stroke-width: 2.25; stroke-linecap: round"/>
   </g>
   <g id="line2d_29">
    <path d="M 67.360781 446.366018 
L 108.476571 446.366018 
L 149.59236 449.093592 
L 190.70815 439.796364 
L 231.823939 449.68 
L 272.939729 447.731613 
L 314.055518 446.411294 
L 355.171308 442.432 
L 396.287097 436.909714 
L 437.402887 427.245714 
L 478.518676 449.334857 
L 519.634465 439.266207 
L 560.750255 436.670769 
L 601.866044 450.888 
L 642.981834 450.888 
L 684.097623 451.153171 
L 725.213413 425.52 
L 766.329202 431.768276 
L 807.444992 405.036522 
L 848.560781 452.7 
" clip-path="url(#p02d22e7a21)" style="fill: none; stroke: #bebada; stroke-width: 2.25; stroke-linecap: round"/>
   </g>
   <g id="line2d_30">
    <path d="M 67.360781 446.366018 
L 108.476571 442.517522 
L 149.59236 449.093592 
L 190.70815 435.403636 
L 231.823939 449.68 
L 272.939729 443.055484 
L 314.055518 441.295059 
L 355.171308 423.104 
L 396.287097 436.909714 
L 437.402887 427.245714 
L 478.518676 449.334857 
L 519.634465 431.768276 
L 560.750255 436.670769 
L 601.866044 450.888 
L 642.981834 450.888 
L 684.097623 451.153171 
L 725.213413 425.52 
L 766.329202 431.768276 
L 807.444992 405.036522 
L 848.560781 443.64 
" clip-path="url(#p02d22e7a21)" style="fill: none; stroke: #fb8072; stroke-width: 2.25; stroke-linecap: round"/>
   </g>
   <g id="line2d_31">
    <path d="M 67.360781 423.275044 
L 108.476571 423.275044 
L 149.59236 436.427184 
L 190.70815 426.618182 
L 231.823939 425.52 
L 272.939729 419.674839 
L 314.055518 415.713882 
L 355.171308 408.608 
L 396.287097 418.272 
L 437.402887 413.44 
L 478.518676 424.484571 
L 519.634465 416.772414 
L 560.750255 419.944615 
L 601.866044 407.4 
L 642.981834 429.144 
L 684.097623 440.546341 
L 725.213413 425.52 
L 766.329202 431.768276 
L 807.444992 367.22087 
L 848.560781 420.99 
" clip-path="url(#p02d22e7a21)" style="fill: none; stroke: #80b1d3; stroke-width: 2.25; stroke-linecap: round"/>
   </g>
   <g id="line2d_32">
    <path d="M 67.360781 419.426549 
L 108.476571 415.578053 
L 149.59236 432.205049 
L 190.70815 422.225455 
L 231.823939 419.48 
L 272.939729 410.322581 
L 314.055518 410.597647 
L 355.171308 394.112 
L 396.287097 418.272 
L 437.402887 413.44 
L 478.518676 424.484571 
L 519.634465 409.274483 
L 560.750255 419.944615 
L 601.866044 407.4 
L 642.981834 429.144 
L 684.097623 440.546341 
L 725.213413 425.52 
L 766.329202 431.768276 
L 807.444992 348.313043 
L 848.560781 420.99 
" clip-path="url(#p02d22e7a21)" style="fill: none; stroke: #fdb462; stroke-width: 2.25; stroke-linecap: round"/>
   </g>
   <g id="line2d_33">
    <path d="M 67.360781 415.578053 
L 108.476571 407.881062 
L 149.59236 427.982913 
L 190.70815 422.225455 
L 231.823939 413.44 
L 272.939729 405.646452 
L 314.055518 395.248941 
L 355.171308 394.112 
L 396.287097 418.272 
L 437.402887 413.44 
L 478.518676 418.272 
L 519.634465 409.274483 
L 560.750255 419.944615 
L 601.866044 396.528 
L 642.981834 429.144 
L 684.097623 429.939512 
L 725.213413 425.52 
L 766.329202 416.772414 
L 807.444992 329.405217 
L 848.560781 407.4 
" clip-path="url(#p02d22e7a21)" style="fill: none; stroke: #b3de69; stroke-width: 2.25; stroke-linecap: round"/>
   </g>
   <g id="line2d_34">
    <path d="M 67.360781 407.881062 
L 108.476571 407.881062 
L 149.59236 427.982913 
L 190.70815 409.047273 
L 231.823939 413.44 
L 272.939729 396.294194 
L 314.055518 385.016471 
L 355.171308 389.28 
L 396.287097 418.272 
L 437.402887 413.44 
L 478.518676 412.059429 
L 519.634465 409.274483 
L 560.750255 419.944615 
L 601.866044 385.656 
L 642.981834 407.4 
L 684.097623 408.725854 
L 725.213413 425.52 
L 766.329202 416.772414 
L 807.444992 329.405217 
L 848.560781 402.87 
" clip-path="url(#p02d22e7a21)" style="fill: none; stroke: #fccde5; stroke-width: 2.25; stroke-linecap: round"/>
   </g>
   <g id="line2d_35">
    <path d="M 67.360781 407.881062 
L 108.476571 404.032566 
L 149.59236 427.982913 
L 190.70815 400.261818 
L 231.823939 401.36 
L 272.939729 396.294194 
L 314.055518 385.016471 
L 355.171308 384.448 
L 396.287097 412.059429 
L 437.402887 413.44 
L 478.518676 412.059429 
L 519.634465 409.274483 
L 560.750255 419.944615 
L 601.866044 385.656 
L 642.981834 407.4 
L 684.097623 408.725854 
L 725.213413 389.28 
L 766.329202 416.772414 
L 807.444992 329.405217 
L 848.560781 389.28 
" clip-path="url(#p02d22e7a21)" style="fill: none; stroke: #d9d9d9; stroke-width: 2.25; stroke-linecap: round"/>
   </g>
   <g id="line2d_36">
    <path d="M 67.360781 404.032566 
L 108.476571 404.032566 
L 149.59236 427.982913 
L 190.70815 391.476364 
L 231.823939 401.36 
L 272.939729 382.265806 
L 314.055518 385.016471 
L 355.171308 374.784 
L 396.287097 412.059429 
L 437.402887 406.537143 
L 478.518676 412.059429 
L 519.634465 401.776552 
L 560.750255 411.581538 
L 601.866044 385.656 
L 642.981834 407.4 
L 684.097623 408.725854 
L 725.213413 389.28 
L 766.329202 401.776552 
L 807.444992 329.405217 
L 848.560781 380.22 
" clip-path="url(#p02d22e7a21)" style="fill: none; stroke: #bc80bd; stroke-width: 2.25; stroke-linecap: round"/>
   </g>
   <g id="line2d_37">
    <path d="M 67.360781 369.396106 
L 108.476571 377.093097 
L 149.59236 398.427961 
L 190.70815 369.512727 
L 231.823939 377.2 
L 272.939729 363.56129 
L 314.055518 354.319059 
L 355.171308 360.288 
L 396.287097 399.634286 
L 437.402887 392.731429 
L 478.518676 380.996571 
L 519.634465 379.282759 
L 560.750255 369.766154 
L 601.866044 385.656 
L 642.981834 374.784 
L 684.097623 366.298537 
L 725.213413 389.28 
L 766.329202 386.78069 
L 807.444992 310.497391 
L 848.560781 371.16 
" clip-path="url(#p02d22e7a21)" style="fill: none; stroke: #ccebc5; stroke-width: 2.25; stroke-linecap: round"/>
   </g>
   <g id="line2d_38">
    <path d="M 67.360781 357.850619 
L 108.476571 365.547611 
L 149.59236 389.983689 
L 190.70815 369.512727 
L 231.823939 359.08 
L 272.939729 358.885161 
L 314.055518 338.970353 
L 355.171308 355.456 
L 396.287097 387.209143 
L 437.402887 378.925714 
L 478.518676 362.358857 
L 519.634465 364.286897 
L 560.750255 369.766154 
L 601.866044 385.656 
L 642.981834 363.912 
L 684.097623 366.298537 
L 725.213413 353.04 
L 766.329202 341.793103 
L 807.444992 310.497391 
L 848.560781 357.57 
" clip-path="url(#p02d22e7a21)" style="fill: none; stroke: #ffed6f; stroke-width: 2.25; stroke-linecap: round"/>
   </g>
   <g id="line2d_39">
    <path d="M 67.360781 354.002124 
L 108.476571 365.547611 
L 149.59236 389.983689 
L 190.70815 365.12 
L 231.823939 353.04 
L 272.939729 344.856774 
L 314.055518 338.970353 
L 355.171308 350.624 
L 396.287097 387.209143 
L 437.402887 378.925714 
L 478.518676 362.358857 
L 519.634465 349.291034 
L 560.750255 369.766154 
L 601.866044 385.656 
L 642.981834 363.912 
L 684.097623 366.298537 
L 725.213413 353.04 
L 766.329202 326.797241 
L 807.444992 310.497391 
L 848.560781 353.04 
" clip-path="url(#p02d22e7a21)" style="fill: none; stroke: #8dd3c7; stroke-width: 2.25; stroke-linecap: round"/>
   </g>
   <g id="line2d_40">
    <path d="M 67.360781 346.305133 
L 108.476571 365.547611 
L 149.59236 389.983689 
L 190.70815 360.727273 
L 231.823939 353.04 
L 272.939729 340.180645 
L 314.055518 328.737882 
L 355.171308 350.624 
L 396.287097 387.209143 
L 437.402887 378.925714 
L 478.518676 362.358857 
L 519.634465 349.291034 
L 560.750255 353.04 
L 601.866044 374.784 
L 642.981834 363.912 
L 684.097623 366.298537 
L 725.213413 353.04 
L 766.329202 326.797241 
L 807.444992 310.497391 
L 848.560781 348.51 
" clip-path="url(#p02d22e7a21)" style="fill: none; stroke: #ffffb3; stroke-width: 2.25; stroke-linecap: round"/>
   </g>
   <g id="line2d_41">
    <path d="M 67.360781 26.88 
L 108.476571 26.88 
L 149.59236 26.88 
L 190.70815 26.88 
L 231.823939 26.88 
L 272.939729 26.88 
L 314.055518 26.88 
L 355.171308 26.88 
L 396.287097 26.88 
L 437.402887 26.88 
L 478.518676 26.88 
L 519.634465 26.88 
L 560.750255 26.88 
L 601.866044 26.88 
L 642.981834 26.88 
L 684.097623 26.88 
L 725.213413 26.88 
L 766.329202 26.88 
L 807.444992 26.88 
L 848.560781 26.88 
" clip-path="url(#p02d22e7a21)" style="fill: none; stroke: #e6daa6; stroke-width: 2.25; stroke-linecap: round"/>
   </g>
   <g id="patch_3">
    <path d="M 67.360781 461.76 
L 67.360781 26.88 
" style="fill: none; stroke: #262626; stroke-width: 1.875; stroke-linejoin: miter; stroke-linecap: square"/>
   </g>
   <g id="patch_4">
    <path d="M 848.560781 461.76 
L 848.560781 26.88 
" style="fill: none; stroke: #262626; stroke-width: 1.875; stroke-linejoin: miter; stroke-linecap: square"/>
   </g>
   <g id="patch_5">
    <path d="M 67.360781 461.76 
L 848.560781 461.76 
" style="fill: none; stroke: #262626; stroke-width: 1.875; stroke-linejoin: miter; stroke-linecap: square"/>
   </g>
   <g id="patch_6">
    <path d="M 67.360781 26.88 
L 848.560781 26.88 
" style="fill: none; stroke: #262626; stroke-width: 1.875; stroke-linejoin: miter; stroke-linecap: square"/>
   </g>
   <g id="text_16">
    <!-- $\it{P. aeruginosa}$, MHH -->
    <g style="fill: #262626" transform="translate(370.750781 20.88) scale(0.18 -0.18)">
     <defs>
      <path id="DejaVuSans-Oblique-50" d="M 1081 4666 
L 2541 4666 
Q 3178 4666 3512 4369 
Q 3847 4072 3847 3500 
Q 3847 2731 3353 2303 
Q 2859 1875 1966 1875 
L 1172 1875 
L 806 0 
L 172 0 
L 1081 4666 
z
M 1613 4147 
L 1275 2394 
L 2069 2394 
Q 2606 2394 2893 2669 
Q 3181 2944 3181 3456 
Q 3181 3784 2986 3965 
Q 2791 4147 2438 4147 
L 1613 4147 
z
" transform="scale(0.015625)"/>
      <path id="DejaVuSans-Oblique-61" d="M 3438 1997 
L 3047 0 
L 2472 0 
L 2578 531 
Q 2325 219 2001 64 
Q 1678 -91 1281 -91 
Q 834 -91 548 182 
Q 263 456 263 884 
Q 263 1497 752 1853 
Q 1241 2209 2100 2209 
L 2900 2209 
L 2931 2363 
Q 2938 2388 2941 2417 
Q 2944 2447 2944 2509 
Q 2944 2788 2717 2942 
Q 2491 3097 2081 3097 
Q 1800 3097 1504 3025 
Q 1209 2953 897 2809 
L 997 3341 
Q 1322 3463 1633 3523 
Q 1944 3584 2234 3584 
Q 2853 3584 3176 3315 
Q 3500 3047 3500 2534 
Q 3500 2431 3484 2292 
Q 3469 2153 3438 1997 
z
M 2816 1759 
L 2241 1759 
Q 1534 1759 1195 1570 
Q 856 1381 856 984 
Q 856 709 1029 553 
Q 1203 397 1509 397 
Q 1978 397 2328 733 
Q 2678 1069 2791 1631 
L 2816 1759 
z
" transform="scale(0.015625)"/>
      <path id="DejaVuSans-Oblique-65" d="M 3078 2063 
Q 3088 2113 3092 2166 
Q 3097 2219 3097 2272 
Q 3097 2653 2873 2875 
Q 2650 3097 2266 3097 
Q 1838 3097 1509 2826 
Q 1181 2556 1013 2059 
L 3078 2063 
z
M 3578 1613 
L 903 1613 
Q 884 1494 878 1425 
Q 872 1356 872 1306 
Q 872 872 1139 634 
Q 1406 397 1894 397 
Q 2269 397 2603 481 
Q 2938 566 3225 728 
L 3116 159 
Q 2806 34 2476 -28 
Q 2147 -91 1806 -91 
Q 1078 -91 686 257 
Q 294 606 294 1247 
Q 294 1794 489 2264 
Q 684 2734 1063 3103 
Q 1306 3334 1642 3459 
Q 1978 3584 2356 3584 
Q 2950 3584 3301 3228 
Q 3653 2872 3653 2272 
Q 3653 2128 3634 1964 
Q 3616 1800 3578 1613 
z
" transform="scale(0.015625)"/>
      <path id="DejaVuSans-Oblique-72" d="M 2853 2969 
Q 2766 3016 2653 3041 
Q 2541 3066 2413 3066 
Q 1953 3066 1609 2717 
Q 1266 2369 1153 1784 
L 800 0 
L 225 0 
L 909 3500 
L 1484 3500 
L 1375 2956 
Q 1603 3259 1920 3421 
Q 2238 3584 2597 3584 
Q 2691 3584 2781 3573 
Q 2872 3563 2963 3538 
L 2853 2969 
z
" transform="scale(0.015625)"/>
      <path id="DejaVuSans-Oblique-75" d="M 428 1388 
L 838 3500 
L 1416 3500 
L 1006 1409 
Q 975 1256 961 1147 
Q 947 1038 947 966 
Q 947 700 1109 554 
Q 1272 409 1569 409 
Q 2031 409 2368 721 
Q 2706 1034 2809 1563 
L 3194 3500 
L 3769 3500 
L 3091 0 
L 2516 0 
L 2631 550 
Q 2388 244 2052 76 
Q 1716 -91 1338 -91 
Q 878 -91 622 161 
Q 366 413 366 863 
Q 366 956 381 1097 
Q 397 1238 428 1388 
z
" transform="scale(0.015625)"/>
      <path id="DejaVuSans-Oblique-67" d="M 3816 3500 
L 3219 434 
Q 3047 -456 2561 -893 
Q 2075 -1331 1253 -1331 
Q 950 -1331 690 -1286 
Q 431 -1241 206 -1147 
L 313 -588 
Q 525 -725 762 -790 
Q 1000 -856 1269 -856 
Q 1816 -856 2167 -557 
Q 2519 -259 2631 300 
L 2681 563 
Q 2441 288 2122 144 
Q 1803 0 1434 0 
Q 903 0 598 351 
Q 294 703 294 1319 
Q 294 1803 478 2267 
Q 663 2731 997 3091 
Q 1219 3328 1514 3456 
Q 1809 3584 2131 3584 
Q 2484 3584 2746 3420 
Q 3009 3256 3138 2956 
L 3238 3500 
L 3816 3500 
z
M 2950 2216 
Q 2950 2641 2750 2872 
Q 2550 3103 2181 3103 
Q 1953 3103 1747 3012 
Q 1541 2922 1394 2759 
Q 1156 2491 1023 2127 
Q 891 1763 891 1375 
Q 891 944 1092 712 
Q 1294 481 1672 481 
Q 2219 481 2584 976 
Q 2950 1472 2950 2216 
z
" transform="scale(0.015625)"/>
      <path id="DejaVuSans-Oblique-69" d="M 1172 4863 
L 1747 4863 
L 1606 4134 
L 1031 4134 
L 1172 4863 
z
M 909 3500 
L 1484 3500 
L 800 0 
L 225 0 
L 909 3500 
z
" transform="scale(0.015625)"/>
      <path id="DejaVuSans-Oblique-6e" d="M 3566 2113 
L 3156 0 
L 2578 0 
L 2988 2091 
Q 3016 2238 3031 2350 
Q 3047 2463 3047 2528 
Q 3047 2791 2881 2937 
Q 2716 3084 2419 3084 
Q 1956 3084 1622 2776 
Q 1288 2469 1184 1941 
L 800 0 
L 225 0 
L 903 3500 
L 1478 3500 
L 1363 2950 
Q 1603 3253 1940 3418 
Q 2278 3584 2650 3584 
Q 3113 3584 3367 3334 
Q 3622 3084 3622 2631 
Q 3622 2519 3608 2391 
Q 3594 2263 3566 2113 
z
" transform="scale(0.015625)"/>
      <path id="DejaVuSans-Oblique-6f" d="M 1625 -91 
Q 1009 -91 651 289 
Q 294 669 294 1325 
Q 294 1706 417 2101 
Q 541 2497 738 2766 
Q 1047 3184 1428 3384 
Q 1809 3584 2291 3584 
Q 2888 3584 3255 3212 
Q 3622 2841 3622 2241 
Q 3622 1825 3500 1412 
Q 3378 1000 3181 728 
Q 2875 309 2494 109 
Q 2113 -91 1625 -91 
z
M 891 1344 
Q 891 869 1089 633 
Q 1288 397 1691 397 
Q 2269 397 2648 901 
Q 3028 1406 3028 2181 
Q 3028 2634 2825 2865 
Q 2622 3097 2228 3097 
Q 1903 3097 1650 2945 
Q 1397 2794 1197 2484 
Q 1050 2253 970 1956 
Q 891 1659 891 1344 
z
" transform="scale(0.015625)"/>
      <path id="DejaVuSans-Oblique-73" d="M 3200 3397 
L 3091 2853 
Q 2863 2978 2609 3040 
Q 2356 3103 2088 3103 
Q 1634 3103 1373 2948 
Q 1113 2794 1113 2528 
Q 1113 2219 1719 2053 
Q 1766 2041 1788 2034 
L 1972 1978 
Q 2547 1819 2739 1644 
Q 2931 1469 2931 1166 
Q 2931 609 2489 259 
Q 2047 -91 1331 -91 
Q 1053 -91 747 -37 
Q 441 16 72 128 
L 184 722 
Q 500 559 806 475 
Q 1113 391 1394 391 
Q 1816 391 2080 572 
Q 2344 753 2344 1031 
Q 2344 1331 1650 1516 
L 1591 1531 
L 1394 1581 
Q 956 1697 753 1886 
Q 550 2075 550 2369 
Q 550 2928 970 3256 
Q 1391 3584 2113 3584 
Q 2397 3584 2667 3537 
Q 2938 3491 3200 3397 
z
" transform="scale(0.015625)"/>
      <path id="DejaVuSans-2c" d="M 750 794 
L 1409 794 
L 1409 256 
L 897 -744 
L 494 -744 
L 750 256 
L 750 794 
z
" transform="scale(0.015625)"/>
      <path id="DejaVuSans-48" d="M 628 4666 
L 1259 4666 
L 1259 2753 
L 3553 2753 
L 3553 4666 
L 4184 4666 
L 4184 0 
L 3553 0 
L 3553 2222 
L 1259 2222 
L 1259 0 
L 628 0 
L 628 4666 
z
" transform="scale(0.015625)"/>
     </defs>
     <use xlink:href="#DejaVuSans-Oblique-50" transform="translate(0 0.015625)"/>
     <use xlink:href="#DejaVuSans-2e" transform="translate(60.302734 0.015625)"/>
     <use xlink:href="#DejaVuSans-Oblique-61" transform="translate(111.572266 0.015625)"/>
     <use xlink:href="#DejaVuSans-Oblique-65" transform="translate(172.851562 0.015625)"/>
     <use xlink:href="#DejaVuSans-Oblique-72" transform="translate(234.375 0.015625)"/>
     <use xlink:href="#DejaVuSans-Oblique-75" transform="translate(275.488281 0.015625)"/>
     <use xlink:href="#DejaVuSans-Oblique-67" transform="translate(338.867188 0.015625)"/>
     <use xlink:href="#DejaVuSans-Oblique-69" transform="translate(402.34375 0.015625)"/>
     <use xlink:href="#DejaVuSans-Oblique-6e" transform="translate(430.126953 0.015625)"/>
     <use xlink:href="#DejaVuSans-Oblique-6f" transform="translate(493.505859 0.015625)"/>
     <use xlink:href="#DejaVuSans-Oblique-73" transform="translate(554.6875 0.015625)"/>
     <use xlink:href="#DejaVuSans-Oblique-61" transform="translate(606.787109 0.015625)"/>
     <use xlink:href="#DejaVuSans-2c" transform="translate(668.066406 0.015625)"/>
     <use xlink:href="#DejaVuSans-20" transform="translate(699.853516 0.015625)"/>
     <use xlink:href="#DejaVuSans-4d" transform="translate(731.640625 0.015625)"/>
     <use xlink:href="#DejaVuSans-48" transform="translate(817.919922 0.015625)"/>
     <use xlink:href="#DejaVuSans-48" transform="translate(893.115234 0.015625)"/>
    </g>
   </g>
   <g id="legend_1">
    <g id="patch_7">
     <path d="M 899.170781 429.034219 
L 1004.523281 429.034219 
Q 1007.823281 429.034219 1007.823281 425.734219 
L 1007.823281 38.43 
Q 1007.823281 35.13 1004.523281 35.13 
L 899.170781 35.13 
Q 895.870781 35.13 895.870781 38.43 
L 895.870781 425.734219 
Q 895.870781 429.034219 899.170781 429.034219 
z
" style="fill: #ffffff; opacity: 0.8; stroke: #cccccc; stroke-width: 1.5; stroke-linejoin: miter"/>
    </g>
    <g id="text_17">
     <!-- ST &gt; 15 -->
     <g style="fill: #262626" transform="translate(915.921563 55.407187) scale(0.18 -0.18)">
      <defs>
       <path id="DejaVuSans-53" d="M 3425 4513 
L 3425 3897 
Q 3066 4069 2747 4153 
Q 2428 4238 2131 4238 
Q 1616 4238 1336 4038 
Q 1056 3838 1056 3469 
Q 1056 3159 1242 3001 
Q 1428 2844 1947 2747 
L 2328 2669 
Q 3034 2534 3370 2195 
Q 3706 1856 3706 1288 
Q 3706 609 3251 259 
Q 2797 -91 1919 -91 
Q 1588 -91 1214 -16 
Q 841 59 441 206 
L 441 856 
Q 825 641 1194 531 
Q 1563 422 1919 422 
Q 2459 422 2753 634 
Q 3047 847 3047 1241 
Q 3047 1584 2836 1778 
Q 2625 1972 2144 2069 
L 1759 2144 
Q 1053 2284 737 2584 
Q 422 2884 422 3419 
Q 422 4038 858 4394 
Q 1294 4750 2059 4750 
Q 2388 4750 2728 4690 
Q 3069 4631 3425 4513 
z
" transform="scale(0.015625)"/>
       <path id="DejaVuSans-54" d="M -19 4666 
L 3928 4666 
L 3928 4134 
L 2272 4134 
L 2272 0 
L 1638 0 
L 1638 4134 
L -19 4134 
L -19 4666 
z
" transform="scale(0.015625)"/>
       <path id="DejaVuSans-3e" d="M 678 3150 
L 678 3719 
L 4684 2266 
L 4684 1747 
L 678 294 
L 678 863 
L 3897 2003 
L 678 3150 
z
" transform="scale(0.015625)"/>
       <path id="DejaVuSans-35" d="M 691 4666 
L 3169 4666 
L 3169 4134 
L 1269 4134 
L 1269 2991 
Q 1406 3038 1543 3061 
Q 1681 3084 1819 3084 
Q 2600 3084 3056 2656 
Q 3513 2228 3513 1497 
Q 3513 744 3044 326 
Q 2575 -91 1722 -91 
Q 1428 -91 1123 -41 
Q 819 9 494 109 
L 494 744 
Q 775 591 1075 516 
Q 1375 441 1709 441 
Q 2250 441 2565 725 
Q 2881 1009 2881 1497 
Q 2881 1984 2565 2268 
Q 2250 2553 1709 2553 
Q 1456 2553 1204 2497 
Q 953 2441 691 2322 
L 691 4666 
z
" transform="scale(0.015625)"/>
      </defs>
      <use xlink:href="#DejaVuSans-53"/>
      <use xlink:href="#DejaVuSans-54" x="63.476562"/>
      <use xlink:href="#DejaVuSans-20" x="124.560547"/>
      <use xlink:href="#DejaVuSans-3e" x="156.347656"/>
      <use xlink:href="#DejaVuSans-20" x="240.136719"/>
      <use xlink:href="#DejaVuSans-31" x="271.923828"/>
      <use xlink:href="#DejaVuSans-35" x="335.546875"/>
     </g>
    </g>
    <g id="patch_8">
     <path d="M 902.470781 79.938047 
L 935.470781 79.938047 
L 935.470781 68.388047 
L 902.470781 68.388047 
z
" style="fill: #8dd3c7; stroke: #8dd3c7; stroke-width: 1.5; stroke-linejoin: miter"/>
    </g>
    <g id="text_18">
     <!-- 111 -->
     <g style="fill: #262626" transform="translate(948.670781 79.938047) scale(0.165 -0.165)">
      <use xlink:href="#DejaVuSans-31"/>
      <use xlink:href="#DejaVuSans-31" x="63.623047"/>
      <use xlink:href="#DejaVuSans-31" x="127.246094"/>
     </g>
    </g>
    <g id="patch_9">
     <path d="M 902.470781 104.156953 
L 935.470781 104.156953 
L 935.470781 92.606953 
L 902.470781 92.606953 
z
" style="fill: #ffffb3; stroke: #ffffb3; stroke-width: 1.5; stroke-linejoin: miter"/>
    </g>
    <g id="text_19">
     <!-- 207 -->
     <g style="fill: #262626" transform="translate(948.670781 104.156953) scale(0.165 -0.165)">
      <defs>
       <path id="DejaVuSans-37" d="M 525 4666 
L 3525 4666 
L 3525 4397 
L 1831 0 
L 1172 0 
L 2766 4134 
L 525 4134 
L 525 4666 
z
" transform="scale(0.015625)"/>
      </defs>
      <use xlink:href="#DejaVuSans-32"/>
      <use xlink:href="#DejaVuSans-30" x="63.623047"/>
      <use xlink:href="#DejaVuSans-37" x="127.246094"/>
     </g>
    </g>
    <g id="patch_10">
     <path d="M 902.470781 128.375859 
L 935.470781 128.375859 
L 935.470781 116.825859 
L 902.470781 116.825859 
z
" style="fill: #bebada; stroke: #bebada; stroke-width: 1.5; stroke-linejoin: miter"/>
    </g>
    <g id="text_20">
     <!-- 235 -->
     <g style="fill: #262626" transform="translate(948.670781 128.375859) scale(0.165 -0.165)">
      <defs>
       <path id="DejaVuSans-33" d="M 2597 2516 
Q 3050 2419 3304 2112 
Q 3559 1806 3559 1356 
Q 3559 666 3084 287 
Q 2609 -91 1734 -91 
Q 1441 -91 1130 -33 
Q 819 25 488 141 
L 488 750 
Q 750 597 1062 519 
Q 1375 441 1716 441 
Q 2309 441 2620 675 
Q 2931 909 2931 1356 
Q 2931 1769 2642 2001 
Q 2353 2234 1838 2234 
L 1294 2234 
L 1294 2753 
L 1863 2753 
Q 2328 2753 2575 2939 
Q 2822 3125 2822 3475 
Q 2822 3834 2567 4026 
Q 2313 4219 1838 4219 
Q 1578 4219 1281 4162 
Q 984 4106 628 3988 
L 628 4550 
Q 988 4650 1302 4700 
Q 1616 4750 1894 4750 
Q 2613 4750 3031 4423 
Q 3450 4097 3450 3541 
Q 3450 3153 3228 2886 
Q 3006 2619 2597 2516 
z
" transform="scale(0.015625)"/>
      </defs>
      <use xlink:href="#DejaVuSans-32"/>
      <use xlink:href="#DejaVuSans-33" x="63.623047"/>
      <use xlink:href="#DejaVuSans-35" x="127.246094"/>
     </g>
    </g>
    <g id="patch_11">
     <path d="M 902.470781 152.594766 
L 935.470781 152.594766 
L 935.470781 141.044766 
L 902.470781 141.044766 
z
" style="fill: #fb8072; stroke: #fb8072; stroke-width: 1.5; stroke-linejoin: miter"/>
    </g>
    <g id="text_21">
     <!-- 245 -->
     <g style="fill: #262626" transform="translate(948.670781 152.594766) scale(0.165 -0.165)">
      <use xlink:href="#DejaVuSans-32"/>
      <use xlink:href="#DejaVuSans-34" x="63.623047"/>
      <use xlink:href="#DejaVuSans-35" x="127.246094"/>
     </g>
    </g>
    <g id="patch_12">
     <path d="M 902.470781 176.813672 
L 935.470781 176.813672 
L 935.470781 165.263672 
L 902.470781 165.263672 
z
" style="fill: #80b1d3; stroke: #80b1d3; stroke-width: 1.5; stroke-linejoin: miter"/>
    </g>
    <g id="text_22">
     <!-- 253 -->
     <g style="fill: #262626" transform="translate(948.670781 176.813672) scale(0.165 -0.165)">
      <use xlink:href="#DejaVuSans-32"/>
      <use xlink:href="#DejaVuSans-35" x="63.623047"/>
      <use xlink:href="#DejaVuSans-33" x="127.246094"/>
     </g>
    </g>
    <g id="patch_13">
     <path d="M 902.470781 201.032578 
L 935.470781 201.032578 
L 935.470781 189.482578 
L 902.470781 189.482578 
z
" style="fill: #fdb462; stroke: #fdb462; stroke-width: 1.5; stroke-linejoin: miter"/>
    </g>
    <g id="text_23">
     <!-- 308 -->
     <g style="fill: #262626" transform="translate(948.670781 201.032578) scale(0.165 -0.165)">
      <use xlink:href="#DejaVuSans-33"/>
      <use xlink:href="#DejaVuSans-30" x="63.623047"/>
      <use xlink:href="#DejaVuSans-38" x="127.246094"/>
     </g>
    </g>
    <g id="patch_14">
     <path d="M 902.470781 225.251484 
L 935.470781 225.251484 
L 935.470781 213.701484 
L 902.470781 213.701484 
z
" style="fill: #b3de69; stroke: #b3de69; stroke-width: 1.5; stroke-linejoin: miter"/>
    </g>
    <g id="text_24">
     <!-- 309 -->
     <g style="fill: #262626" transform="translate(948.670781 225.251484) scale(0.165 -0.165)">
      <defs>
       <path id="DejaVuSans-39" d="M 703 97 
L 703 672 
Q 941 559 1184 500 
Q 1428 441 1663 441 
Q 2288 441 2617 861 
Q 2947 1281 2994 2138 
Q 2813 1869 2534 1725 
Q 2256 1581 1919 1581 
Q 1219 1581 811 2004 
Q 403 2428 403 3163 
Q 403 3881 828 4315 
Q 1253 4750 1959 4750 
Q 2769 4750 3195 4129 
Q 3622 3509 3622 2328 
Q 3622 1225 3098 567 
Q 2575 -91 1691 -91 
Q 1453 -91 1209 -44 
Q 966 3 703 97 
z
M 1959 2075 
Q 2384 2075 2632 2365 
Q 2881 2656 2881 3163 
Q 2881 3666 2632 3958 
Q 2384 4250 1959 4250 
Q 1534 4250 1286 3958 
Q 1038 3666 1038 3163 
Q 1038 2656 1286 2365 
Q 1534 2075 1959 2075 
z
" transform="scale(0.015625)"/>
      </defs>
      <use xlink:href="#DejaVuSans-33"/>
      <use xlink:href="#DejaVuSans-30" x="63.623047"/>
      <use xlink:href="#DejaVuSans-39" x="127.246094"/>
     </g>
    </g>
    <g id="patch_15">
     <path d="M 902.470781 249.470391 
L 935.470781 249.470391 
L 935.470781 237.920391 
L 902.470781 237.920391 
z
" style="fill: #fccde5; stroke: #fccde5; stroke-width: 1.5; stroke-linejoin: miter"/>
    </g>
    <g id="text_25">
     <!-- 313 -->
     <g style="fill: #262626" transform="translate(948.670781 249.470391) scale(0.165 -0.165)">
      <use xlink:href="#DejaVuSans-33"/>
      <use xlink:href="#DejaVuSans-31" x="63.623047"/>
      <use xlink:href="#DejaVuSans-33" x="127.246094"/>
     </g>
    </g>
    <g id="patch_16">
     <path d="M 902.470781 273.689297 
L 935.470781 273.689297 
L 935.470781 262.139297 
L 902.470781 262.139297 
z
" style="fill: #d9d9d9; stroke: #d9d9d9; stroke-width: 1.5; stroke-linejoin: miter"/>
    </g>
    <g id="text_26">
     <!-- 319 -->
     <g style="fill: #262626" transform="translate(948.670781 273.689297) scale(0.165 -0.165)">
      <use xlink:href="#DejaVuSans-33"/>
      <use xlink:href="#DejaVuSans-31" x="63.623047"/>
      <use xlink:href="#DejaVuSans-39" x="127.246094"/>
     </g>
    </g>
    <g id="patch_17">
     <path d="M 902.470781 297.908203 
L 935.470781 297.908203 
L 935.470781 286.358203 
L 902.470781 286.358203 
z
" style="fill: #bc80bd; stroke: #bc80bd; stroke-width: 1.5; stroke-linejoin: miter"/>
    </g>
    <g id="text_27">
     <!-- 381 -->
     <g style="fill: #262626" transform="translate(948.670781 297.908203) scale(0.165 -0.165)">
      <use xlink:href="#DejaVuSans-33"/>
      <use xlink:href="#DejaVuSans-38" x="63.623047"/>
      <use xlink:href="#DejaVuSans-31" x="127.246094"/>
     </g>
    </g>
    <g id="patch_18">
     <path d="M 902.470781 322.127109 
L 935.470781 322.127109 
L 935.470781 310.577109 
L 902.470781 310.577109 
z
" style="fill: #ccebc5; stroke: #ccebc5; stroke-width: 1.5; stroke-linejoin: miter"/>
    </g>
    <g id="text_28">
     <!-- 395 -->
     <g style="fill: #262626" transform="translate(948.670781 322.127109) scale(0.165 -0.165)">
      <use xlink:href="#DejaVuSans-33"/>
      <use xlink:href="#DejaVuSans-39" x="63.623047"/>
      <use xlink:href="#DejaVuSans-35" x="127.246094"/>
     </g>
    </g>
    <g id="patch_19">
     <path d="M 902.470781 346.346016 
L 935.470781 346.346016 
L 935.470781 334.796016 
L 902.470781 334.796016 
z
" style="fill: #ffed6f; stroke: #ffed6f; stroke-width: 1.5; stroke-linejoin: miter"/>
    </g>
    <g id="text_29">
     <!-- 446 -->
     <g style="fill: #262626" transform="translate(948.670781 346.346016) scale(0.165 -0.165)">
      <use xlink:href="#DejaVuSans-34"/>
      <use xlink:href="#DejaVuSans-34" x="63.623047"/>
      <use xlink:href="#DejaVuSans-36" x="127.246094"/>
     </g>
    </g>
    <g id="patch_20">
     <path d="M 902.470781 370.564922 
L 935.470781 370.564922 
L 935.470781 359.014922 
L 902.470781 359.014922 
z
" style="fill: #8dd3c7; stroke: #8dd3c7; stroke-width: 1.5; stroke-linejoin: miter"/>
    </g>
    <g id="text_30">
     <!-- 560 -->
     <g style="fill: #262626" transform="translate(948.670781 370.564922) scale(0.165 -0.165)">
      <use xlink:href="#DejaVuSans-35"/>
      <use xlink:href="#DejaVuSans-36" x="63.623047"/>
      <use xlink:href="#DejaVuSans-30" x="127.246094"/>
     </g>
    </g>
    <g id="patch_21">
     <path d="M 902.470781 394.783828 
L 935.470781 394.783828 
L 935.470781 383.233828 
L 902.470781 383.233828 
z
" style="fill: #ffffb3; stroke: #ffffb3; stroke-width: 1.5; stroke-linejoin: miter"/>
    </g>
    <g id="text_31">
     <!-- 773 -->
     <g style="fill: #262626" transform="translate(948.670781 394.783828) scale(0.165 -0.165)">
      <use xlink:href="#DejaVuSans-37"/>
      <use xlink:href="#DejaVuSans-37" x="63.623047"/>
      <use xlink:href="#DejaVuSans-33" x="127.246094"/>
     </g>
    </g>
    <g id="patch_22">
     <path d="M 902.470781 419.002734 
L 935.470781 419.002734 
L 935.470781 407.452734 
L 902.470781 407.452734 
z
" style="fill: #e6daa6; stroke: #e6daa6; stroke-width: 1.5; stroke-linejoin: miter"/>
    </g>
    <g id="text_32">
     <!-- others -->
     <g style="fill: #262626" transform="translate(948.670781 419.002734) scale(0.165 -0.165)">
      <use xlink:href="#DejaVuSans-6f"/>
      <use xlink:href="#DejaVuSans-74" x="61.181641"/>
      <use xlink:href="#DejaVuSans-68" x="100.390625"/>
      <use xlink:href="#DejaVuSans-65" x="163.769531"/>
      <use xlink:href="#DejaVuSans-72" x="225.292969"/>
      <use xlink:href="#DejaVuSans-73" x="266.40625"/>
     </g>
    </g>
   </g>
  </g>
 </g>
 <defs>
  <clipPath id="p02d22e7a21">
   <rect x="67.360781" y="26.88" width="781.2" height="434.88"/>
  </clipPath>
 </defs>
</svg>
